<?xml version="1.0" encoding="UTF-8"?><svg id="b" xmlns="http://www.w3.org/2000/svg" width="312.37" height="50.87" viewBox="0 0 312.37 50.87"><g id="c"><g><path d="m24.48,47.71c-.07-.06-.14-.13-.21-.19-.18-.16-.35-.32-.51-.5-.07-.07-.13-.14-.2-.21-.22-.24-.43-.49-.62-.77-.87-1.19-1.52-2.59-1.97-4.19-.69-2.44-1.11-3.88-1.25-4.32,0-.03-.02-.14-.06-.35-.05-.2-.08-.34-.12-.41-.03-.06-.09-.16-.17-.3-.05-.08-.1-.14-.17-.19-.04-.03-.09-.06-.14-.08-.13-.05-.28-.06-.47-.05-.27.01-.52.13-.74.34-.23.22-.36.48-.39.8-.05.51-.02,1.86.09,4.03.31.65.67,1.26,1.07,1.81.65.9,1.42,1.65,2.3,2.24l4.31,2.89s0,0,0,0c-.26-.18-.51-.37-.75-.57Z" style="fill:#f38ebb; stroke:#062935; stroke-linecap:round; stroke-linejoin:round; stroke-width:.75px;"/><path d="m280.15,1.56c-.49.14-.97.41-1.44.81-.58.5-.94,1.16-1.09,1.95l1.27.85c-.07-.04-.14-.08-.21-.11.09.05.18.09.26.14.52.35.83.95.93,1.76.1.82-.16,1.89-.76,3.22-.51,1.13-.97,2.17-1.41,3.14,0,1.87-.05,3.52-.18,4.89-.18,1.95-.63,4.42-1.33,7.41-.7,3.01-1.1,5.03-1.2,6.08-.09.96.1,1.71.59,2.26.12.14.26.26.41.36l4.31,2.89s0,0,0,0c-.15-.1-.29-.22-.41-.36-.49-.55-.68-1.3-.59-2.26.1-1.05.5-3.07,1.2-6.08.7-3,1.15-5.47,1.33-7.41.2-2.07.24-4.72.13-7.96-.11-3.23-.15-5.07-.1-5.51.09-.99.48-1.78,1.17-2.37.21-.18.42-.32.63-.45.02-.01.04-.02.06-.03.2-.12.41-.21.62-.28l-4.18-2.94Z" style="fill:#f38ebb; stroke:#062935; stroke-linecap:round; stroke-linejoin:round; stroke-width:.75px;"/><path d="m270.22,13.31c-.54-.77-1.02-1.61-1.44-2.53-.42-.91-.59-1.75-.52-2.52.09-.99.49-1.78,1.18-2.37.7-.58,1.48-.9,2.35-.94l-4.31-2.89c-.87.04-1.65.36-2.35.94-.69.59-1.09,1.38-1.18,2.37-.07.77.1,1.61.52,2.52s.9,1.76,1.44,2.53c.53.76,1,1.8,1.38,3.07.38,1.28.51,2.63.37,4.04-.13,1.4-.88,3.02-2.25,4.86-1.13,1.53-2.25,2.43-3.35,2.74.19.3.38.6.58.87.63.85,1.24,1.44,1.82,1.78.05.03.1.07.16.09.07.04.15.07.22.1.05.02.1.04.14.06.08.03.16.04.24.06.04,0,.08.02.12.03.12.02.24.02.35.02,1.32-.06,2.66-1.01,4.03-2.85,1.36-1.84,2.11-3.46,2.25-4.86.13-1.4.01-2.75-.37-4.04-.39-1.28-.85-2.31-1.38-3.07Z" style="fill:#f38ebb; stroke:#062935; stroke-linecap:round; stroke-linejoin:round; stroke-width:.75px;"/><path d="m254.56,36.73c-.29-.38-.58-.92-.88-1.6-.29-.68-.54-1.31-.74-1.89-.19-.57-.43-1.34-.69-2.3-.27-.96-.49-1.79-.66-2.49-.17-.71-.4-1.66-.69-2.85-.29-1.19-.53-2.19-.72-2.97-.57-2.17-1.23-4.17-1.98-6.01-.74-1.83-1.29-3.23-1.63-4.18-.34-.95-.47-1.89-.38-2.81.1-1.08.52-1.95,1.23-2.61.72-.65,1.62-1,2.69-1.05l-4.31-2.89c-1.07.05-1.97.4-2.69,1.05-.71.66-1.13,1.53-1.23,2.61-.09.92.04,1.86.39,2.81.34.95.89,2.35,1.63,4.18.75,1.84,1.41,3.84,1.98,6.01.19.78.44,1.77.72,2.97.29,1.19.52,2.13.69,2.85.17.7.39,1.53.66,2.49.26.96.5,1.72.69,2.3.2.58.45,1.21.74,1.89.3.69.58,1.22.88,1.6.29.38.63.75,1.01,1.09.15.13.29.25.45.35l4.31,2.89c-.15-.1-.3-.22-.45-.35-.39-.34-.72-.71-1.01-1.09Z" style="fill:#f38ebb; stroke:#062935; stroke-linecap:round; stroke-linejoin:round; stroke-width:.75px;"/><path d="m230.62,17.69c.27.75.37,1.63.27,2.65-.12,1.31-.5,2.42-1.12,3.34l4.31,2.89c.62-.92,1-2.03,1.12-3.34.18-1.91-.27-3.34-1.34-4.29-.81-.72-1.89-1.13-3.24-1.26Z" style="fill:#f38ebb; stroke:#062935; stroke-linecap:round; stroke-linejoin:round; stroke-width:.75px;"/><path d="m216.73,37.46s0,0,0,0c-.33-.31-.63-.64-.92-1-.05-.07-.11-.13-.16-.2-.27-.35-.53-.73-.77-1.12-.05-.08-.09-.16-.13-.24-.24-.42-.46-.86-.66-1.33-1.06-2.5-1.41-5.61-1.06-9.31.06-.6.14-1.18.22-1.75.03-.19.06-.38.09-.56.07-.38.14-.76.22-1.13.04-.2.09-.41.13-.61.11-.45.24-.9.37-1.33.09-.3.2-.59.3-.88.06-.15.11-.31.17-.46.42-1.09.92-2.11,1.5-3.05l-4.35-2.83c-.71,1.15-1.29,2.43-1.76,3.81.95,2.43,1.26,5.39.93,8.88-.21,2.18-.62,4.16-1.22,5.95.05.12.09.24.14.36.88,2.08,2.16,3.69,3.83,4.82l4.31,2.89s-.08-.06-.12-.09c-.37-.26-.73-.53-1.06-.84Z" style="fill:#f38ebb; stroke:#062935; stroke-linecap:round; stroke-linejoin:round; stroke-width:.75px;"/><path d="m199.9,20.13l-2.72-.88c.27.75.37,1.63.27,2.65-.12,1.31-.5,2.42-1.12,3.34l4.31,2.89c.62-.92,1-2.03,1.12-3.34.18-1.91-.27-3.34-1.34-4.29-.16-.14-.34-.26-.52-.38Z" style="fill:#f38ebb; stroke:#062935; stroke-linecap:round; stroke-linejoin:round; stroke-width:.75px;"/><path d="m183.28,39.03c-.33-.31-.63-.64-.92-1-.05-.07-.11-.13-.16-.2-.27-.35-.53-.73-.77-1.12-.05-.08-.09-.16-.13-.24-.24-.42-.46-.86-.66-1.33-.93-2.21-1.32-4.88-1.16-8.02.02-.45.05-.91.1-1.38.4-4.24,1.57-7.73,3.49-10.5l-4.37-2.81c-1.08,1.57-1.91,3.39-2.5,5.44.02.45.02.91-.02,1.37-.11,1.14-.4,2.27-.88,3.38,0,.08-.02.15-.03.23-.2,2.09-.16,3.99.09,5.69l.82.55s0,0,0,0c.21.14.39.35.53.63.31.57.4,1.46.29,2.67-.03.28-.08.56-.12.83.84,1.57,1.93,2.83,3.3,3.75l3.43,2.3c-.1-.08-.21-.15-.31-.24,0,0,0,0,0,0Z" style="fill:#f38ebb; stroke:#062935; stroke-linecap:round; stroke-linejoin:round; stroke-width:.75px;"/><path d="m165.04,21.51c-.45-.31-.98-.46-1.59-.43l-1.56.07s0,.09,0,.15c-.08.89-.46,1.67-1.11,2.33-.66.67-1.41,1.03-2.25,1.07l4.31,2.89c.84-.04,1.59-.39,2.25-1.07.66-.66,1.03-1.45,1.11-2.33.08-.9-.14-1.65-.68-2.26-.15-.17-.31-.3-.48-.42Z" style="fill:#f38ebb; stroke:#062935; stroke-linecap:round; stroke-linejoin:round; stroke-width:.75px;"/><path d="m161.76,41.49c-.08-.06-.16-.12-.24-.19-.23-.2-.46-.42-.67-.65-.79-.86-1.46-1.83-2-2.91-.54-1.06-.99-2.22-1.34-3.48-.24-.91-.49-1.87-.76-2.87-.09-.29-.17-.5-.23-.66-.06-.16-.17-.29-.31-.41-.16-.12-.35-.17-.6-.16-.23.01-.48.12-.72.32-.24.2-.38.48-.41.82-.03.3.03,1.56.19,3.76.52.98,1.13,1.89,1.87,2.69.45.49.95.92,1.49,1.28l4.31,2.89s-.05-.04-.08-.06c-.17-.12-.33-.25-.49-.38Z" style="fill:#f38ebb; stroke:#062935; stroke-linecap:round; stroke-linejoin:round; stroke-width:.75px;"/><path d="m141.35,8.81c-.68.59-1.07,1.38-1.17,2.37-.04.45,0,2.28.1,5.51.11,3.23.07,5.88-.13,7.96-.1,1.07-.29,2.32-.55,3.72.2.37.28.8.23,1.29l-1.06,11.21,4.16,2.79s0,0,0,0c-.15-.1-.29-.22-.41-.36-.48-.55-.68-1.3-.59-2.26.1-1.05.5-3.07,1.2-6.08.7-3,1.15-5.47,1.33-7.41.2-2.07.24-4.72.13-7.96-.11-3.23-.15-5.07-.1-5.51.09-.99.48-1.78,1.17-2.37.68-.58,1.38-.9,2.1-.93l-4.31-2.89c-.72.03-1.42.35-2.1.93Z" style="fill:#f38ebb; stroke:#062935; stroke-linecap:round; stroke-linejoin:round; stroke-width:.75px;"/><path d="m119.88,25.27c-.08.04-.16.09-.24.14-.49.75-.82,1.59-1,2.54.03.09.04.18.09.26.13.25.29.45.51.59l3.77,2.53.54.36c-.06-.04-.11-.09-.16-.14-.03-.03-.07-.06-.1-.09-.06-.06-.1-.14-.15-.21-.03-.05-.07-.1-.1-.15-.16-.29-.21-.63-.18-1.01.02-.26.1-.51.21-.77.11-.26.27-.49.47-.69.2-.2.41-.35.65-.46.24-.11.48-.17.76-.18l-4.31-2.89c-.27.01-.52.08-.76.18Z" style="fill:#f38ebb; stroke:#062935; stroke-linecap:round; stroke-linejoin:round; stroke-width:.75px;"/><path d="m124.91,11.84l-4.31-2.89c-1.58.07-3.16.41-4.72,1.01-1.56.6-3.02,1.43-4.39,2.49-.61.47-1.18.99-1.74,1.54.3.86,0,2.12-.91,3.75-.56.92-1.32,2.14-2.29,3.68-.97,1.54-1.8,2.9-2.51,4.07-.03.05-.08.14-.14.24-.06.38-.11.77-.15,1.16-.46,4.81.33,8.69,2.36,11.63.8,1.15,1.7,2.06,2.7,2.74l4.31,2.89s-.05-.04-.08-.06c-.08-.05-.15-.11-.23-.17-.21-.16-.42-.32-.62-.5-.09-.08-.18-.16-.27-.25-.19-.18-.37-.37-.55-.57-.08-.09-.16-.17-.23-.26-.25-.29-.49-.6-.72-.93-2.03-2.94-2.81-6.82-2.36-11.63.19-2.01.64-3.93,1.35-5.78.71-1.84,1.61-3.48,2.7-4.91,1.08-1.43,2.31-2.68,3.68-3.75,1.37-1.06,2.83-1.89,4.39-2.49,1.56-.6,3.14-.94,4.72-1.01Z" style="fill:#f38ebb; stroke:#062935; stroke-linecap:round; stroke-linejoin:round; stroke-width:.75px;"/><path d="m100.47,21.16c-.28-.42-.6-.84-.93-1.27-.34-.43-.65-.83-.94-1.19-.29-.37-.52-.79-.69-1.25-.16-.47-.22-.95-.18-1.42.09-.96.47-1.69,1.15-2.22.68-.52,1.46-.81,2.36-.85l-4.31-2.89c-.9.04-1.68.33-2.36.85-.68.53-1.06,1.27-1.15,2.22-.03.3,0,.59.05.89.03.03.07.05.1.08.43.41.64.96.66,1.63.02.02.03.05.05.07.3.36.6.76.94,1.19.33.43.64.85.93,1.27.29.41.52.93.68,1.54.17.61.22,1.25.16,1.92-.05.54-.23,1.18-.54,1.91-.3.73-.66,1.42-1.07,2.07-.41.65-.86,1.22-1.39,1.7-.19.18-.38.32-.56.43,0,0,0,.01,0,.02.51.92,1.08,1.68,1.7,2.3.26.26.5.44.74.59.12.07.24.13.35.18.05.02.1.04.15.06.16.05.31.08.46.07.45-.02.94-.28,1.46-.76.53-.48.98-1.05,1.39-1.7.41-.65.76-1.35,1.07-2.07.31-.73.49-1.37.54-1.91.06-.67.01-1.31-.16-1.92-.17-.61-.39-1.12-.68-1.54Z" style="fill:#f38ebb; stroke:#062935; stroke-linecap:round; stroke-linejoin:round; stroke-width:.75px;"/><path d="m82.62,29.11c-1.02-2.23-1.57-3.47-1.64-3.68-.52-1.18-1.08-2.22-1.69-3.12-.62-.89-1.13-1.52-1.52-1.9-.4-.38-.72-.83-.97-1.36-.25-.53-.34-1.16-.27-1.89.09-.99.5-1.76,1.2-2.32.71-.56,1.6-.86,2.68-.91l-4.31-2.89c-1.08.05-1.97.36-2.68.91-.7.56-1.11,1.33-1.2,2.32-.05.48-.01.91.08,1.3.16.28.3.62.44,1.01.21.34.44.66.72.93.39.38.9,1.01,1.52,1.9.61.9,1.18,1.93,1.69,3.12.07.21.62,1.44,1.64,3.68,1.03,2.24,1.89,4.23,2.59,5.98.7,1.74,1.02,2.85.98,3.33-.08.83-.41,1.82-.97,2.98-.57,1.15-.89,2.05-.95,2.68-.04.41-.01.8.09,1.14.1.35.26.63.47.86.1.1.21.19.33.27l4.31,2.89c-.12-.08-.23-.17-.33-.27-.21-.23-.37-.51-.47-.86-.1-.34-.13-.72-.09-1.14.06-.64.38-1.53.95-2.68.57-1.16.9-2.15.97-2.98.05-.48-.28-1.59-.98-3.33-.69-1.75-1.56-3.74-2.59-5.98Z" style="fill:#f38ebb; stroke:#062935; stroke-linecap:round; stroke-linejoin:round; stroke-width:.75px;"/><path d="m4.12,15.25c-.68.59-1.07,1.38-1.17,2.37-.04.45,0,2.28.1,5.51.11,3.23.07,5.88-.13,7.96-.18,1.95-.63,4.42-1.33,7.41-.7,3.01-1.1,5.03-1.2,6.08-.09.96.1,1.71.59,2.26.12.14.26.26.41.36l4.31,2.89s0,0,0,0c-.15-.1-.29-.22-.41-.36-.49-.55-.68-1.3-.59-2.26.1-1.05.5-3.07,1.2-6.08.7-3,1.15-5.47,1.33-7.41.2-2.07.24-4.72.13-7.96s-.15-5.07-.1-5.51c.09-.99.48-1.78,1.17-2.37.67-.58,1.38-.9,2.1-.93l-4.31-2.89c-.72.03-1.42.35-2.1.93Z" style="fill:#f38ebb; stroke:#062935; stroke-linecap:round; stroke-linejoin:round; stroke-width:.75px;"/><path d="m41.2,13.51c-.68.59-1.07,1.38-1.17,2.37-.04.45,0,2.28.1,5.51.1,3.23.06,5.88-.14,7.96-.15,1.55-.46,3.44-.94,5.66.61.68.82,1.99.64,3.93-.16,1.65-.62,3.27-1.38,4.85-.16.33-.34.64-.52.94.08.13.16.26.26.38.12.14.26.26.41.36l4.31,2.89s0,0,0,0c-.15-.1-.29-.22-.41-.36-.49-.55-.68-1.3-.59-2.26.1-1.05.5-3.07,1.2-6.08.69-3,1.14-5.47,1.32-7.41.2-2.07.24-4.72.14-7.96-.11-3.23-.15-5.07-.1-5.51.09-.99.48-1.78,1.17-2.37.22-.19.45-.34.68-.48.05-.03.1-.06.15-.08.23-.12.46-.22.69-.28l-4.45-2.84c-.47.15-.93.4-1.38.79Z" style="fill:#f38ebb; stroke:#062935; stroke-linecap:round; stroke-linejoin:round; stroke-width:.75px;"/><path d="m29.31,12.99c-1.28.06-2.61.5-3.97,1.31-1.36.81-2.58,1.78-3.67,2.93-.5.53-1.01,1.11-1.52,1.72.05.29.07.6.04.94-.05.51-.4,2.22-1.04,5.14-.66,2.92-1.11,5.32-1.38,7.21.7-1.31,1.4-2.59,2.13-3.84.73-1.25,1.65-2.66,2.77-4.22,1.12-1.56,2.22-2.91,3.31-4.06,1.09-1.15,2.32-2.12,3.67-2.93,1.36-.81,2.68-1.25,3.97-1.31.33-.02.64-.01.92,0,.09,0,.18.02.27.03.18.02.37.04.53.08.1.02.18.05.27.08.14.04.28.08.4.14.09.04.16.08.24.12.07.04.15.07.21.11l-4.31-2.89c-.65-.44-1.59-.63-2.85-.57Z" style="fill:#f38ebb; stroke:#062935; stroke-linecap:round; stroke-linejoin:round; stroke-width:.75px;"/></g><g><path d="m306.74,20.26c-.4-.27-.91-.39-1.54-.36-.7.03-1.54.25-2.51.62,0,.06,0,.11,0,.17-.05.57-.3,1.05-.76,1.44-.45.38-.96.59-1.54.61-.41.02-.94-.12-1.58-.42-.94.48-2.01.93-3.25,1.36-1.37.48-2.65.74-3.86.8,0,0-.02,0-.03,0,0,.83.32,1.52,1,2.07.14.11.3.2.46.29.09.05.17.1.27.14.14.06.29.11.45.16.1.03.19.07.3.09.18.04.38.07.58.09.1.01.19.03.29.04.31.02.64.03.99.01,1.2-.06,2.48-.32,3.86-.8,1.37-.48,2.56-.99,3.56-1.52,1.01-.54,2.07-1.05,3.21-1.51,1.13-.46,2.08-.71,2.86-.75.27-.01.52,0,.75.05.02,0,.04,0,.06,0,.22.05.41.12.58.22.02.01.05.03.08.04.02.01.04.02.06.04l-4.31-2.89Z" style="fill:#d8d55d; stroke:#062935; stroke-linecap:round; stroke-linejoin:round; stroke-width:.75px;"/><path d="m292.51,16.07c-.04.14-.08.28-.09.43-.05.51.08.97.38,1.39.3.41.71.71,1.23.89.51.18,1.07.26,1.68.23l5.07-.24c.22-.01.42.01.61.06.04,0,.07.01.11.02.18.05.34.12.49.22.01,0,.02,0,.03.02l-4.31-2.89c-.34-.23-.76-.34-1.25-.31l-3.96.19Z" style="fill:#d8d55d; stroke:#062935; stroke-linecap:round; stroke-linejoin:round; stroke-width:.75px;"/><path d="m307.66,3.27c.19,0,.36,0,.52.02.05,0,.09.01.14.02.12.02.23.04.34.08.04.01.08.02.12.04.13.05.26.11.37.18l-4.31-2.89c-.37-.25-.87-.36-1.49-.34-.66.03-4.49.21-11.5.54-7,.33-10.68.5-11.04.52-.22.01-.44.06-.66.12l4.18,2.94c.12-.04.25-.08.37-.11.14-.03.28-.06.43-.06.36-.02,4.04-.19,11.04-.52,7.01-.33,10.84-.51,11.5-.54Z" style="fill:#d8d55d; stroke:#062935; stroke-linecap:round; stroke-linejoin:round; stroke-width:.75px;"/><path d="m274.58,2.27c-.51-.34-1.17-.49-1.99-.45l-5.11.24,4.31,2.89,5.11-.24c.21,0,.4,0,.59,0,.06,0,.11.02.17.03.12.01.25.03.36.05.07.02.12.04.19.06.1.03.19.06.28.09.06.03.12.06.18.1.07.04.15.07.21.11l-1.27-.85-3.04-2.04Z" style="fill:#d8d55d; stroke:#062935; stroke-linecap:round; stroke-linejoin:round; stroke-width:.75px;"/><path d="m254.87,2.65l-9.07.43,4.31,2.89,9.07-.43c.19,0,.36,0,.53.02.05,0,.1.02.15.03.12.02.24.05.36.09.05.02.09.03.14.05.15.06.29.13.43.22,0,0,0,0,0,0l-4.31-2.89c-.45-.3-.98-.43-1.61-.41Z" style="fill:#d8d55d; stroke:#062935; stroke-linecap:round; stroke-linejoin:round; stroke-width:.75px;"/><path d="m227.31,25.77c-1.01.48-2.19.75-3.54.81-.49.02-.94,0-1.37-.03.23.65.57,1.2,1.07,1.64.22.19.47.35.72.5.12.07.24.13.36.19.2.09.41.17.62.25.13.04.26.09.4.12.25.06.52.11.79.14.13.02.25.04.39.05.42.04.86.05,1.33.03,1.35-.06,2.53-.33,3.54-.81s1.83-1.17,2.46-2.09l-4.31-2.89c-.63.91-1.45,1.61-2.46,2.09Z" style="fill:#d8d55d; stroke:#062935; stroke-linecap:round; stroke-linejoin:round; stroke-width:.75px;"/><path d="m234.03,5.25c-2.2-1.13-4.9-1.63-8.11-1.48-4.85.23-8.8,1.85-11.85,4.87-.91.9-1.7,1.92-2.39,3.04l4.35,2.83c.32-.52.67-1.02,1.05-1.5.02-.03.04-.06.06-.09.39-.49.8-.95,1.24-1.39,3.05-3.01,7-4.64,11.85-4.87,3.21-.15,5.9.35,8.11,1.48.32.17.63.35.93.55.03.02.07.04.1.06l-4.31-2.89c-.33-.22-.67-.42-1.03-.61Z" style="fill:#d8d55d; stroke:#062935; stroke-linecap:round; stroke-linejoin:round; stroke-width:.75px;"/><path d="m193.86,27.34c-1.01.48-2.19.75-3.54.81-.49.02-.95,0-1.38-.03.08.23.2.43.31.64.38.62.9,1.09,1.13,1.28.12.08.24.15.36.22.12.07.24.13.36.19.2.09.41.17.62.25.13.04.26.09.4.12.25.06.52.1.79.14.13.02.25.04.39.06.42.03.86.05,1.33.03,1.34-.06,2.53-.33,3.54-.81,1.01-.48,1.83-1.17,2.46-2.09l-4.31-2.89c-.63.91-1.45,1.61-2.46,2.09Z" style="fill:#d8d55d; stroke:#062935; stroke-linecap:round; stroke-linejoin:round; stroke-width:.75px;"/><path d="m200.6,6.72c-2.21-1.13-4.91-1.63-8.1-1.48-4.85.23-8.81,1.85-11.86,4.87-.72.71-1.36,1.49-1.94,2.33l4.37,2.81c.56-.81,1.18-1.57,1.88-2.25,3.05-3.01,7.01-4.64,11.86-4.87,3.2-.15,5.9.35,8.11,1.48.32.17.63.35.93.55.03.02.07.04.1.06l-4.31-2.89c-.33-.22-.67-.42-1.03-.6Z" style="fill:#d8d55d; stroke:#062935; stroke-linecap:round; stroke-linejoin:round; stroke-width:.75px;"/><path d="m172.49,26.62c-.43.4-.88.79-1.39,1.14-1.55,1.09-3.26,1.68-5.11,1.76l-7.54.35c.36.6.93,1.09,1.69,1.48.1.05.18.11.28.16.3.14.63.26.99.37,1.44.44,2.99.62,4.66.54,1.14-.05,2.22-.27,3.26-.63,1.03-.37,1.86-.76,2.48-1.19.62-.42,1.26-.81,1.92-1.16.66-.35,1.22-.53,1.7-.55.14,0,.27,0,.39.04.04.01.08.04.11.05.08.03.16.06.23.1,0,0,0,0,0,0l-.82-.55-2.87-1.92Z" style="fill:#d8d55d; stroke:#062935; stroke-linecap:round; stroke-linejoin:round; stroke-width:.75px;"/><polygon points="158.52 24.7 155.09 24.86 154.8 27.97 162.83 27.59 158.52 24.7" style="fill:#d8d55d; stroke:#062935; stroke-linecap:round; stroke-linejoin:round; stroke-width:.75px;"/><path d="m129.32,43.51c-.69-.82-.98-1.84-.87-3.08l.3-3.16c.03-.32-.04-.59-.21-.8l-.37-.25c-.09-.03-.18-.06-.29-.05-.3.01-.57.13-.8.35-.23.22-.36.48-.39.8-.1,1.02-.32,1.99-.68,2.92-.12.31-.27.6-.42.89.03.02.05.05.08.07l4.31,2.89s-.02-.02-.03-.03c-.22-.15-.43-.33-.62-.55Z" style="fill:#d8d55d; stroke:#062935; stroke-linecap:round; stroke-linejoin:round; stroke-width:.75px;"/><path d="m129.96,31.17c.04-.38-.03-.68-.2-.92l-.4-.27c-.11-.04-.22-.06-.36-.06-.6.03-1.34.37-2.21,1.01-.88.64-1.61.98-2.18,1.01-.36.02-.67-.05-.94-.2-.11-.06-.19-.14-.28-.21.05.05.1.1.16.14l-.54-.36c-.98.54-1.98.84-3.01.89-.37.02-.72,0-1.06-.02.24.56.57,1.04.99,1.43.24.23.5.42.77.6.23.15.46.28.71.39.03.02.07.03.1.04.23.1.47.18.72.25.05.01.09.03.14.04.27.07.55.11.83.14.06,0,.12.01.18.01.3.02.6.03.92.02,1.28-.06,2.52-.5,3.72-1.31,1.2-.82,1.84-1.69,1.93-2.62Z" style="fill:#d8d55d; stroke:#062935; stroke-linecap:round; stroke-linejoin:round; stroke-width:.75px;"/><path d="m134.53,24.71c-.51,0-1.03-.07-1.57-.2l-12.33.58,4.31,2.89,12.93-.61c.19,0,.36.01.53.05.05.01.09.03.14.04.13.04.25.09.36.16.02.01.05.02.07.03l-4.31-2.89s-.09-.04-.13-.06Z" style="fill:#d8d55d; stroke:#062935; stroke-linecap:round; stroke-linejoin:round; stroke-width:.75px;"/><path d="m135.1,11.37c.19,0,.36,0,.53.02.05,0,.09.01.14.02.12.02.23.04.34.08.04.01.08.02.12.04.13.05.25.11.36.18l-4.31-2.89c-.37-.25-.87-.36-1.49-.33l-10.19.48,4.31,2.89,10.19-.48Z" style="fill:#d8d55d; stroke:#062935; stroke-linecap:round; stroke-linejoin:round; stroke-width:.75px;"/><path d="m102.96,9.78l-6.02.28,4.31,2.89,6.02-.28c.29-.01.55,0,.79.04.04,0,.09,0,.13.02.23.04.43.1.61.19.04.02.07.04.1.05.05.03.11.05.16.08l-4.31-2.89c-.43-.29-1.03-.42-1.79-.38Z" style="fill:#d8d55d; stroke:#062935; stroke-linecap:round; stroke-linejoin:round; stroke-width:.75px;"/><path d="m87.2,10.52l-11.09.52,4.31,2.89,11.09-.52c.2,0,.38,0,.56.02.06,0,.11.02.16.03.12.02.24.04.35.08.06.02.11.04.17.06.11.04.21.09.31.14.05.02.09.05.14.07.02.01.04.02.06.03l-4.31-2.89c-.47-.32-1.05-.46-1.75-.43Z" style="fill:#d8d55d; stroke:#062935; stroke-linecap:round; stroke-linejoin:round; stroke-width:.75px;"/><path d="m67.69,31.05c-.7.03-1.54.24-2.51.62,0,.06,0,.11,0,.17-.05.57-.31,1.05-.76,1.44-.45.38-.96.59-1.53.61-.41.02-.94-.12-1.58-.42-.94.48-2.02.93-3.25,1.36-1.37.48-2.66.74-3.86.8-.01,0-.02,0-.03,0,0,.83.32,1.52,1,2.07.14.11.3.2.46.29.09.05.18.1.27.14.14.06.29.11.45.16.1.03.2.07.3.09.18.04.38.07.58.09.1.01.19.03.29.04.31.02.64.03.99.01,1.2-.06,2.48-.32,3.86-.8,1.36-.48,2.56-.99,3.56-1.52,1-.54,2.07-1.05,3.2-1.51s2.09-.71,2.87-.75c.27-.01.52,0,.75.05.02,0,.04,0,.06,0,.22.05.41.12.58.22.02.01.05.03.07.04.02.01.04.02.06.03l-4.31-2.89c-.4-.27-.91-.38-1.54-.35Z" style="fill:#d8d55d; stroke:#062935; stroke-linecap:round; stroke-linejoin:round; stroke-width:.75px;"/><path d="m54.99,27.21c-.04.14-.08.28-.1.43-.05.51.08.97.38,1.39.31.41.72.71,1.23.89.52.18,1.08.26,1.68.23l5.07-.24c.22-.01.42.01.6.05.04,0,.08.02.11.03.18.05.34.12.49.21,0,0,.02,0,.03.01l-4.31-2.89c-.34-.23-.75-.33-1.23-.31l-3.96.19Z" style="fill:#d8d55d; stroke:#062935; stroke-linecap:round; stroke-linejoin:round; stroke-width:.75px;"/><path d="m33.32,31.56c-.54.03-1.15.26-1.84.7-.68.45-1.31.93-1.9,1.45-.59.52-1.36,1.01-2.33,1.46-.97.46-1.97.71-3.02.76-.82.04-1.65-.06-2.46-.28.37.58.82,1.08,1.36,1.48.29.21.6.39.91.57.13.07.25.15.38.22.4.2.82.38,1.27.52.94.31,1.89.43,2.84.39,1.05-.05,2.06-.3,3.02-.76s1.74-.95,2.33-1.46c.59-.52,1.22-1,1.9-1.45.69-.44,1.3-.68,1.84-.7.22-.01.42,0,.6.05.06.01.11.05.17.07.12.04.23.08.33.15.01,0,.02,0,.04.02l-4.31-2.89c-.31-.21-.69-.3-1.14-.28Z" style="fill:#d8d55d; stroke:#062935; stroke-linecap:round; stroke-linejoin:round; stroke-width:.75px;"/><path d="m13.22,13.99l-7,.33,4.31,2.89,7-.33c.16,0,.32,0,.48.03.05,0,.1.02.14.03.11.02.22.05.32.09.05.02.1.04.15.06.11.05.21.1.32.16.04.02.08.04.11.06.01,0,.03.01.04.02l-4.31-2.89c-.47-.32-1-.47-1.56-.44Z" style="fill:#d8d55d; stroke:#062935; stroke-linecap:round; stroke-linejoin:round; stroke-width:.75px;"/><path d="m70.14,14.41c.28-.01.52.01.74.05.06.01.11.02.17.04.2.05.38.12.54.22.01,0,.03,0,.04.02l-4.31-2.89c-.37-.25-.87-.36-1.49-.33-.65.03-4.48.21-11.49.54-7,.33-10.68.5-11.04.52-.24.01-.48.07-.72.14l4.45,2.84c.19-.05.38-.08.57-.09.36-.02,4.04-.19,11.04-.52,7.01-.33,10.84-.51,11.49-.54Z" style="fill:#d8d55d; stroke:#062935; stroke-linecap:round; stroke-linejoin:round; stroke-width:.75px;"/><path d="m169.16,9.86c.14.01.26.05.4.07.27.04.55.08.81.15.15.04.3.11.45.16.23.08.46.15.67.25.15.07.3.16.45.25.16.09.33.17.49.27l-4.31-2.89c-1.3-.87-2.83-1.27-4.56-1.19l-20.11.94,4.31,2.89,20.11-.94c.45-.02.88,0,1.29.03Z" style="fill:#d8d55d; stroke:#062935; stroke-linecap:round; stroke-linejoin:round; stroke-width:.75px;"/></g><g><path d="m106.55,21.42c.97-1.54,1.73-2.76,2.29-3.68.91-1.63,1.21-2.89.91-3.75-.01-.03-.02-.06-.03-.09-.16-.42-.44-.72-.82-.92-.03-.02-.07-.04-.1-.05-.18-.08-.38-.15-.61-.19-.04,0-.08-.01-.13-.02-.24-.03-.5-.05-.79-.04l-6.02.28c-.9.04-1.68.33-2.36.85-.68.53-1.06,1.27-1.15,2.22-.04.47.01.95.18,1.42.17.46.39.88.69,1.25.3.36.6.76.94,1.19.33.43.64.85.93,1.27.29.41.52.93.68,1.54.17.61.22,1.25.16,1.92-.05.54-.23,1.18-.54,1.91-.3.73-.66,1.42-1.07,2.07-.41.65-.86,1.22-1.39,1.7-.52.49-1,.74-1.46.76-.15,0-.3-.02-.46-.07-.05-.01-.1-.04-.15-.06-.12-.05-.23-.11-.35-.18-.24-.15-.48-.33-.74-.59-.62-.62-1.2-1.38-1.7-2.3,0,0,0-.01,0-.02-.5-.9-.92-1.9-1.25-2.99-.32-1.1-.45-2.07-.37-2.93.09-.96.5-2.01,1.23-3.16.74-1.14,1.13-2,1.19-2.57.02-.16,0-.31,0-.45-.02-.68-.23-1.22-.66-1.63-.03-.03-.07-.05-.1-.08-.09-.08-.18-.15-.28-.22-.04-.03-.09-.05-.14-.07-.1-.05-.2-.1-.31-.14-.05-.02-.11-.04-.17-.06-.11-.03-.23-.06-.35-.08-.05,0-.11-.02-.16-.03-.18-.02-.37-.03-.56-.02l-11.09.52c-1.08.05-1.97.36-2.69.91-.7.56-1.11,1.33-1.2,2.32-.07.73.02,1.36.27,1.89s.57.98.96,1.36c.39.38.9,1.01,1.52,1.9.61.9,1.18,1.93,1.69,3.12.07.21.62,1.44,1.64,3.68,1.03,2.24,1.89,4.23,2.59,5.98.7,1.74,1.02,2.85.98,3.33-.08.83-.41,1.82-.97,2.98-.57,1.15-.89,2.05-.95,2.68-.04.41-.01.8.09,1.14.1.35.26.63.47.86.22.23.5.4.84.53.35.12.73.18,1.15.16l7.22-.34c.9-.04,1.66-.33,2.28-.87.61-.53.96-1.24,1.04-2.1.05-.58-.05-1.39-.31-2.44-.25-1.05-.33-2.08-.24-3.11.07-.73.57-1.9,1.49-3.52.93-1.61,2.07-3.42,3.42-5.42,1.13-1.67,1.85-2.75,2.16-3.25.06-.1.11-.18.14-.24.71-1.17,1.54-2.53,2.51-4.07Z" style="fill:#39bba0; stroke:#062935; stroke-linecap:round; stroke-linejoin:round; stroke-width:.75px;"/><path d="m123.2,35.07c-.29-.03-.56-.07-.83-.14.27.07.55.11.83.14Z" style="fill:#39bba0; stroke:#062935; stroke-linecap:round; stroke-linejoin:round; stroke-width:.75px;"/><path d="m124.31,35.1c-.32.01-.62,0-.92-.02.3.02.6.03.92.02Z" style="fill:#39bba0; stroke:#062935; stroke-linecap:round; stroke-linejoin:round; stroke-width:.75px;"/><path d="m138.53,27.46s-.09-.03-.14-.04c.05.01.09.03.14.04Z" style="fill:#39bba0; stroke:#062935; stroke-linecap:round; stroke-linejoin:round; stroke-width:.75px;"/><path d="m167.87,9.83c.45-.02.88,0,1.29.03-.42-.04-.85-.05-1.29-.03Z" style="fill:#39bba0; stroke:#062935; stroke-linecap:round; stroke-linejoin:round; stroke-width:.75px;"/><path d="m121.41,34.6c-.25-.11-.48-.24-.71-.39.23.15.46.28.71.39Z" style="fill:#39bba0; stroke:#062935; stroke-linecap:round; stroke-linejoin:round; stroke-width:.75px;"/><path d="m122.23,34.89c-.25-.07-.49-.15-.72-.25.23.1.47.18.72.25Z" style="fill:#39bba0; stroke:#062935; stroke-linecap:round; stroke-linejoin:round; stroke-width:.75px;"/><path d="m171.49,10.49c-.22-.1-.45-.18-.67-.25.23.08.46.15.67.25Z" style="fill:#39bba0; stroke:#062935; stroke-linecap:round; stroke-linejoin:round; stroke-width:.75px;"/><path d="m215.8,36.46c-.05-.07-.11-.13-.16-.2.05.07.11.13.16.2Z" style="fill:#39bba0; stroke:#062935; stroke-linecap:round; stroke-linejoin:round; stroke-width:.75px;"/><path d="m170.37,10.08c-.26-.07-.54-.11-.81-.15.27.04.55.08.81.15Z" style="fill:#39bba0; stroke:#062935; stroke-linecap:round; stroke-linejoin:round; stroke-width:.75px;"/><path d="m216.72,37.46s0,0,0,0c0,0,0,0,0,0Z" style="fill:#39bba0; stroke:#062935; stroke-linecap:round; stroke-linejoin:round; stroke-width:.75px;"/><path d="m160.43,31.52c-.1-.05-.19-.11-.28-.16.1.05.18.11.28.16Z" style="fill:#39bba0; stroke:#062935; stroke-linecap:round; stroke-linejoin:round; stroke-width:.75px;"/><path d="m123.14,31.24c-.03-.05-.07-.09-.1-.15.03.06.07.1.1.15,0,0,0,0,0,0Z" style="fill:#39bba0; stroke:#062935; stroke-linecap:round; stroke-linejoin:round; stroke-width:.75px;"/><path d="m96.24,30.93c-.12-.05-.23-.11-.35-.18.12.07.24.13.35.18Z" style="fill:#39bba0; stroke:#062935; stroke-linecap:round; stroke-linejoin:round; stroke-width:.75px;"/><path d="m96.85,31.06c-.15,0-.3-.02-.46-.07.16.05.31.08.46.07Z" style="fill:#39bba0; stroke:#062935; stroke-linecap:round; stroke-linejoin:round; stroke-width:.75px;"/><path d="m91.51,13.41c.2,0,.38,0,.56.02-.18-.02-.37-.03-.56-.02Z" style="fill:#39bba0; stroke:#062935; stroke-linecap:round; stroke-linejoin:round; stroke-width:.75px;"/><path d="m92.59,13.53c-.11-.03-.23-.06-.35-.08.12.02.24.04.35.08Z" style="fill:#39bba0; stroke:#062935; stroke-linecap:round; stroke-linejoin:round; stroke-width:.75px;"/><path d="m93.07,13.73c-.1-.05-.2-.1-.31-.14.11.04.21.09.31.14Z" style="fill:#39bba0; stroke:#062935; stroke-linecap:round; stroke-linejoin:round; stroke-width:.75px;"/><path d="m107.27,12.67c.29-.01.55,0,.79.04-.24-.03-.5-.05-.79-.04Z" style="fill:#39bba0; stroke:#062935; stroke-linecap:round; stroke-linejoin:round; stroke-width:.75px;"/><path d="m111.37,42.59c.18.2.36.39.55.57-.19-.18-.37-.37-.55-.57Z" style="fill:#39bba0; stroke:#062935; stroke-linecap:round; stroke-linejoin:round; stroke-width:.75px;"/><path d="m135.1,11.37c.19,0,.36,0,.53.02-.17-.02-.34-.03-.53-.02Z" style="fill:#39bba0; stroke:#062935; stroke-linecap:round; stroke-linejoin:round; stroke-width:.75px;"/><path d="m136.1,11.48c-.11-.03-.22-.06-.34-.08.12.02.23.05.34.08Z" style="fill:#39bba0; stroke:#062935; stroke-linecap:round; stroke-linejoin:round; stroke-width:.75px;"/><path d="m111.13,42.33c-.25-.29-.49-.6-.72-.93.23.33.47.64.72.93Z" style="fill:#39bba0; stroke:#062935; stroke-linecap:round; stroke-linejoin:round; stroke-width:.75px;"/><path d="m108.79,12.92c-.18-.08-.38-.15-.61-.19.23.04.43.1.61.19Z" style="fill:#39bba0; stroke:#062935; stroke-linecap:round; stroke-linejoin:round; stroke-width:.75px;"/><path d="m112.19,43.41c.2.18.41.34.62.5-.21-.16-.42-.32-.62-.5Z" style="fill:#39bba0; stroke:#062935; stroke-linecap:round; stroke-linejoin:round; stroke-width:.75px;"/><path d="m214.74,34.91c.04.08.09.16.13.24-.05-.08-.09-.16-.13-.24Z" style="fill:#39bba0; stroke:#062935; stroke-linecap:round; stroke-linejoin:round; stroke-width:.75px;"/><path d="m18.94,17.24c-.1-.06-.21-.11-.32-.16.11.05.21.1.32.16Z" style="fill:#39bba0; stroke:#062935; stroke-linecap:round; stroke-linejoin:round; stroke-width:.75px;"/><path d="m18.47,17.02c-.11-.04-.21-.06-.32-.09.11.02.22.05.32.09Z" style="fill:#39bba0; stroke:#062935; stroke-linecap:round; stroke-linejoin:round; stroke-width:.75px;"/><path d="m33.62,15.89c.33-.02.64-.01.92,0-.29-.02-.59-.02-.92,0Z" style="fill:#39bba0; stroke:#062935; stroke-linecap:round; stroke-linejoin:round; stroke-width:.75px;"/><path d="m19.21,36.29c.06.05.12.11.17.19-.05-.08-.1-.14-.17-.19Z" style="fill:#39bba0; stroke:#062935; stroke-linecap:round; stroke-linejoin:round; stroke-width:.75px;"/><path d="m17.53,16.88c.16,0,.32,0,.48.03-.16-.02-.32-.03-.48-.03Z" style="fill:#39bba0; stroke:#062935; stroke-linecap:round; stroke-linejoin:round; stroke-width:.75px;"/><path d="m35.34,16.01c-.16-.04-.35-.06-.53-.08.18.02.37.04.53.08Z" style="fill:#39bba0; stroke:#062935; stroke-linecap:round; stroke-linejoin:round; stroke-width:.75px;"/><path d="m38.23,34.51c.06.01.11.05.17.07-.06-.02-.11-.05-.17-.07Z" style="fill:#39bba0; stroke:#062935; stroke-linecap:round; stroke-linejoin:round; stroke-width:.75px;"/><path d="m70.88,14.47c.06.01.11.02.17.04-.06-.01-.11-.03-.17-.04Z" style="fill:#39bba0; stroke:#062935; stroke-linecap:round; stroke-linejoin:round; stroke-width:.75px;"/><path d="m36.02,16.22c-.12-.05-.26-.1-.4-.14.14.04.28.08.4.14Z" style="fill:#39bba0; stroke:#062935; stroke-linecap:round; stroke-linejoin:round; stroke-width:.75px;"/><path d="m46.34,15.84c-.05.03-.1.05-.15.08.05-.03.1-.06.15-.08Z" style="fill:#39bba0; stroke:#062935; stroke-linecap:round; stroke-linejoin:round; stroke-width:.75px;"/><path d="m23.76,47.02c.16.17.34.34.51.5-.18-.16-.35-.32-.51-.5Z" style="fill:#39bba0; stroke:#062935; stroke-linecap:round; stroke-linejoin:round; stroke-width:.75px;"/><path d="m24.43,37.92c-.13-.07-.25-.15-.38-.22.13.07.25.15.38.22Z" style="fill:#39bba0; stroke:#062935; stroke-linecap:round; stroke-linejoin:round; stroke-width:.75px;"/><path d="m24.48,47.71c.24.2.49.4.75.57-.26-.18-.51-.37-.75-.57Z" style="fill:#39bba0; stroke:#062935; stroke-linecap:round; stroke-linejoin:round; stroke-width:.75px;"/><path d="m72,33.94c.27-.01.52,0,.75.05-.23-.04-.48-.06-.75-.05Z" style="fill:#39bba0; stroke:#062935; stroke-linecap:round; stroke-linejoin:round; stroke-width:.75px;"/><path d="m217.15,12.92s-.04.06-.06.09c.02-.03.04-.06.06-.09Z" style="fill:#39bba0; stroke:#062935; stroke-linecap:round; stroke-linejoin:round; stroke-width:.75px;"/><path d="m63.86,29.97s.08.02.11.03c-.04-.01-.07-.02-.11-.03Z" style="fill:#39bba0; stroke:#062935; stroke-linecap:round; stroke-linejoin:round; stroke-width:.75px;"/><path d="m213.24,22.52c-.09.57-.17,1.15-.22,1.75.06-.6.14-1.18.22-1.75Z" style="fill:#39bba0; stroke:#062935; stroke-linecap:round; stroke-linejoin:round; stroke-width:.75px;"/><path d="m213.56,20.83c-.08.37-.16.75-.22,1.13.07-.38.14-.76.22-1.13Z" style="fill:#39bba0; stroke:#062935; stroke-linecap:round; stroke-linejoin:round; stroke-width:.75px;"/><path d="m214.06,18.89c-.13.43-.26.88-.37,1.33.11-.46.24-.9.37-1.33Z" style="fill:#39bba0; stroke:#062935; stroke-linecap:round; stroke-linejoin:round; stroke-width:.75px;"/><path d="m214.54,17.55c-.06.15-.11.31-.17.46.06-.15.11-.31.17-.46Z" style="fill:#39bba0; stroke:#062935; stroke-linecap:round; stroke-linejoin:round; stroke-width:.75px;"/><path d="m73.4,34.22c-.18-.1-.37-.17-.58-.22.22.05.41.12.58.22Z" style="fill:#39bba0; stroke:#062935; stroke-linecap:round; stroke-linejoin:round; stroke-width:.75px;"/><path d="m23.56,46.81c-.22-.24-.43-.49-.62-.77.2.27.4.52.62.77Z" style="fill:#39bba0; stroke:#062935; stroke-linecap:round; stroke-linejoin:round; stroke-width:.75px;"/><path d="m57.52,38.51c-.1,0-.19-.03-.29-.04.1.01.19.03.29.04Z" style="fill:#39bba0; stroke:#062935; stroke-linecap:round; stroke-linejoin:round; stroke-width:.75px;"/><path d="m55.9,38.13c-.1-.04-.18-.09-.27-.14.09.05.18.1.27.14Z" style="fill:#39bba0; stroke:#062935; stroke-linecap:round; stroke-linejoin:round; stroke-width:.75px;"/><path d="m56.65,38.38c-.11-.02-.2-.06-.3-.09.1.03.2.07.3.09Z" style="fill:#39bba0; stroke:#062935; stroke-linecap:round; stroke-linejoin:round; stroke-width:.75px;"/><path d="m265.34,28.12s-.08-.02-.12-.03c.04,0,.08.02.12.03Z" style="fill:#39bba0; stroke:#062935; stroke-linecap:round; stroke-linejoin:round; stroke-width:.75px;"/><path d="m224.55,28.88c-.12-.06-.24-.12-.36-.19.12.07.24.13.36.19Z" style="fill:#39bba0; stroke:#062935; stroke-linecap:round; stroke-linejoin:round; stroke-width:.75px;"/><path d="m225.57,29.25c-.14-.04-.27-.08-.4-.12.13.04.26.09.4.12Z" style="fill:#39bba0; stroke:#062935; stroke-linecap:round; stroke-linejoin:round; stroke-width:.75px;"/><path d="m276.9,4.71c.21,0,.4,0,.59,0-.19-.01-.38-.02-.59,0Z" style="fill:#39bba0; stroke:#062935; stroke-linecap:round; stroke-linejoin:round; stroke-width:.75px;"/><path d="m308.66,3.39c-.11-.03-.22-.06-.34-.08.12.02.23.04.34.08Z" style="fill:#39bba0; stroke:#062935; stroke-miterlimit:10; stroke-width:.75px;"/><path d="m260.78,5.95c-.13-.09-.28-.16-.43-.22.15.06.29.13.43.22Z" style="fill:#39bba0; stroke:#062935; stroke-linecap:round; stroke-linejoin:round; stroke-width:.75px;"/><path d="m260.22,5.68c-.11-.04-.23-.07-.36-.09.12.02.24.05.36.09Z" style="fill:#39bba0; stroke:#062935; stroke-linecap:round; stroke-linejoin:round; stroke-width:.75px;"/><path d="m307.66,3.27c.19,0,.36,0,.52.02-.16-.02-.34-.03-.52-.02Z" style="fill:#39bba0; stroke:#062935; stroke-miterlimit:10; stroke-width:.75px;"/><path d="m264.98,28.03s-.1-.04-.14-.06c.05.02.1.04.14.06Z" style="fill:#39bba0; stroke:#062935; stroke-linecap:round; stroke-linejoin:round; stroke-width:.75px;"/><path d="m264.62,27.88c-.05-.03-.1-.06-.16-.09.05.03.1.06.16.09Z" style="fill:#39bba0; stroke:#062935; stroke-linecap:round; stroke-linejoin:round; stroke-width:.75px;"/><path d="m283.71,4.78s-.04.02-.06.03c.02-.01.04-.02.06-.03Z" style="fill:#39bba0; stroke:#062935; stroke-linecap:round; stroke-linejoin:round; stroke-width:.75px;"/><path d="m310.91,23.08c-.18-.1-.37-.17-.58-.22.22.05.41.12.58.22Z" style="fill:#39bba0; stroke:#062935; stroke-linecap:round; stroke-linejoin:round; stroke-width:.75px;"/><path d="m301.38,18.83s.07.01.11.02c-.04-.01-.07-.02-.11-.02Z" style="fill:#39bba0; stroke:#062935; stroke-linecap:round; stroke-linejoin:round; stroke-width:.75px;"/><path d="m285.12,4.33c-.14,0-.28.03-.43.06.14-.03.28-.06.43-.06Z" style="fill:#39bba0; stroke:#062935; stroke-linecap:round; stroke-linejoin:round; stroke-width:.75px;"/><path d="m259.18,5.55c.19,0,.36,0,.53.02-.17-.02-.35-.03-.53-.02Z" style="fill:#39bba0; stroke:#062935; stroke-linecap:round; stroke-linejoin:round; stroke-width:.75px;"/><path d="m309.51,22.8c.27-.01.52,0,.75.05-.23-.04-.48-.06-.75-.05Z" style="fill:#39bba0; stroke:#062935; stroke-linecap:round; stroke-linejoin:round; stroke-width:.75px;"/><polygon points="284.33 4.5 284.33 4.5 284.33 4.5 284.33 4.5" style="fill:#39bba0; stroke:#062935; stroke-linecap:round; stroke-linejoin:round; stroke-width:.75px;"/><path d="m295.04,27.37c-.1,0-.19-.03-.29-.04.1.01.19.03.29.04Z" style="fill:#39bba0; stroke:#062935; stroke-linecap:round; stroke-linejoin:round; stroke-width:.75px;"/><path d="m293.42,26.99c-.1-.04-.18-.09-.27-.14.09.05.17.1.27.14Z" style="fill:#39bba0; stroke:#062935; stroke-linecap:round; stroke-linejoin:round; stroke-width:.75px;"/><path d="m294.17,27.24c-.11-.02-.2-.06-.3-.09.1.03.19.07.3.09Z" style="fill:#39bba0; stroke:#062935; stroke-linecap:round; stroke-linejoin:round; stroke-width:.75px;"/><path d="m226.75,29.45c-.14-.01-.26-.04-.39-.05.13.02.25.04.39.05Z" style="fill:#39bba0; stroke:#062935; stroke-linecap:round; stroke-linejoin:round; stroke-width:.75px;"/><path d="m161.52,41.3c.08.07.16.13.24.19-.08-.06-.16-.12-.24-.19Z" style="fill:#39bba0; stroke:#062935; stroke-linecap:round; stroke-linejoin:round; stroke-width:.75px;"/><path d="m165.04,21.51c.17.12.33.25.48.42-.15-.17-.31-.3-.48-.42Z" style="fill:#39bba0; stroke:#062935; stroke-linecap:round; stroke-linejoin:round; stroke-width:.75px;"/><path d="m189.26,28.75c-.11-.2-.23-.41-.31-.64.07.22.18.44.31.64Z" style="fill:#39bba0; stroke:#062935; stroke-linecap:round; stroke-linejoin:round; stroke-width:.75px;"/><path d="m190.5,30.13c.08.05.17.08.24.13-.12-.07-.24-.15-.36-.22.07.06.12.09.12.09Z" style="fill:#39bba0; stroke:#062935; stroke-linecap:round; stroke-linejoin:round; stroke-width:.75px;"/><path d="m311.82,24.16c-.18-.47-.46-.82-.83-1.04-.02-.01-.05-.03-.08-.04-.18-.1-.37-.17-.58-.22-.02,0-.04,0-.06,0-.23-.04-.48-.06-.75-.05-.78.04-1.73.29-2.86.75-1.14.46-2.2.97-3.21,1.51-1.01.54-2.19,1.05-3.56,1.52-1.37.48-2.65.74-3.86.8-.35.02-.68.01-.99-.01-.1,0-.19-.03-.29-.04-.2-.02-.4-.05-.58-.09-.11-.02-.2-.06-.3-.09-.15-.05-.31-.1-.45-.16-.1-.04-.18-.09-.27-.14-.16-.09-.33-.18-.46-.29-.68-.55-1.01-1.25-1-2.07,0-.09-.01-.18,0-.28.05-.54.24-1.05.59-1.51.34-.45.79-.83,1.34-1.11.55-.27,1.13-.43,1.77-.46.78-.04,1.67.23,2.68.8.28.16.53.29.77.4.64.29,1.17.44,1.58.42.57-.03,1.08-.23,1.54-.61.46-.39.7-.87.76-1.44,0-.06,0-.11,0-.17.02-.53-.13-.95-.46-1.27-.08-.07-.16-.13-.25-.18-.15-.1-.31-.17-.49-.22-.04-.01-.07-.02-.11-.02-.19-.04-.39-.07-.61-.06l-5.07.24c-.61.03-1.16-.05-1.68-.23-.52-.18-.94-.48-1.23-.89-.31-.41-.43-.88-.38-1.39.01-.15.05-.29.09-.43.17-.58.56-1.09,1.19-1.53.78-.54,1.62-.84,2.52-.88,1.13-.05,2.39.17,3.76.68,1.37.51,2.69,1.02,3.99,1.55,1.29.52,2.43.77,3.41.72,1.41-.07,2.57-.75,3.48-2.07.91-1.31,1.15-2.83.68-4.55-.05-.13-.14-.46-.28-.99-.15-.53-.29-1.06-.41-1.57s-.24-.92-.33-1.2c-.29-1.07-.63-1.83-1.01-2.31-.19-.22-.43-.39-.72-.5-.04-.01-.08-.03-.12-.04-.11-.03-.22-.06-.34-.08-.05,0-.09-.02-.14-.02-.16-.02-.34-.03-.52-.02-.66.03-4.49.21-11.5.54-7,.33-10.68.5-11.04.52-.14,0-.28.03-.43.06-.12.03-.25.06-.37.11,0,0,0,0,0,0-.21.07-.41.17-.62.28-.02.01-.04.02-.06.03-.21.12-.42.27-.63.45-.68.59-1.07,1.38-1.17,2.37-.04.45,0,2.28.1,5.51.11,3.23.07,5.88-.13,7.96-.18,1.95-.63,4.42-1.33,7.41-.7,3.01-1.1,5.03-1.2,6.08-.09.96.1,1.71.59,2.26.12.14.26.26.41.36.44.3,1,.44,1.67.4.51-.02,4.4-.21,11.67-.55,7.27-.34,11.26-.53,11.94-.56.86-.04,1.53-.32,2-.83.47-.52.95-1.32,1.44-2.42.18-.36.56-1.2,1.16-2.53.58-1.33.93-2.11,1.05-2.34.77-1.84.97-3.25.6-4.22Z" style="fill:#39bba0; stroke:#062935; stroke-linecap:round; stroke-linejoin:round; stroke-width:.75px;"/><path d="m278.5,4.95c-.09-.04-.19-.06-.28-.09.1.03.19.06.28.09Z" style="fill:#39bba0; stroke:#062935; stroke-linecap:round; stroke-linejoin:round; stroke-width:.75px;"/><path d="m278.03,4.8c-.11-.03-.24-.04-.36-.05.12.01.25.03.36.05Z" style="fill:#39bba0; stroke:#062935; stroke-linecap:round; stroke-linejoin:round; stroke-width:.75px;"/><path d="m279.87,6.96c-.11-.82-.41-1.41-.93-1.76-.08-.06-.17-.1-.26-.14-.06-.03-.12-.07-.18-.1-.09-.04-.19-.06-.28-.09-.06-.02-.12-.04-.19-.06-.11-.03-.24-.04-.36-.05-.06,0-.11-.02-.17-.03-.19-.01-.38-.02-.59,0l-5.11.24c-.87.04-1.65.36-2.35.94-.69.59-1.09,1.38-1.18,2.37-.07.77.1,1.61.52,2.52.42.91.9,1.76,1.44,2.53.53.76,1,1.8,1.38,3.07.38,1.28.51,2.63.37,4.04-.13,1.4-.88,3.02-2.25,4.86-1.37,1.85-2.71,2.79-4.03,2.85-.12,0-.23,0-.35-.02-.04,0-.08-.02-.12-.03-.08-.02-.16-.03-.24-.06-.05-.02-.1-.04-.14-.06-.07-.03-.15-.06-.22-.1-.05-.03-.1-.06-.16-.09-.59-.34-1.19-.93-1.82-1.78-.2-.28-.39-.58-.58-.87-.81-1.29-1.48-2.78-1.99-4.48-.64-2.1-.88-3.98-.72-5.63.07-.71.48-1.76,1.24-3.18.75-1.41,1.17-2.52,1.25-3.32.09-.92-.12-1.66-.64-2.21-.13-.14-.27-.26-.42-.36,0,0,0,0,0,0-.13-.09-.28-.16-.43-.22-.04-.02-.09-.03-.14-.05-.11-.04-.23-.07-.36-.09-.05,0-.1-.02-.15-.03-.17-.02-.35-.03-.53-.02l-9.07.43c-1.07.05-1.97.4-2.69,1.05-.71.66-1.13,1.53-1.23,2.61-.09.92.04,1.86.38,2.81.34.95.89,2.35,1.63,4.18.75,1.84,1.41,3.84,1.98,6.01.19.78.44,1.77.72,2.97.29,1.19.52,2.13.69,2.85.17.7.39,1.53.66,2.49.26.96.5,1.72.69,2.3.2.58.45,1.21.74,1.89.3.69.58,1.22.88,1.6s.63.75,1.01,1.09c.39.35.8.6,1.23.73.44.14.92.2,1.46.17l4.67-.22c2.37-.11,5.17-3.82,8.43-11.11.37-.78.68-1.46.93-2.05.25-.58.48-1.11.71-1.6s.57-1.23,1.02-2.23c.09-.19,1.33-2.93,3.69-8.2.43-.96.9-2,1.41-3.14.6-1.33.86-2.41.76-3.22Z" style="fill:#39bba0; stroke:#062935; stroke-linecap:round; stroke-linejoin:round; stroke-width:.75px;"/><path d="m239.28,8.69c-.3-.2-.61-.38-.93-.55-2.2-1.13-4.9-1.63-8.11-1.48-4.85.23-8.8,1.85-11.85,4.87-.44.43-.85.9-1.24,1.39-.02.03-.04.06-.06.09-.37.48-.72.98-1.05,1.5-.58.94-1.08,1.95-1.5,3.05-.06.15-.11.31-.17.46-.1.29-.21.58-.3.88-.13.43-.26.87-.37,1.33-.05.2-.09.4-.13.61-.08.37-.16.74-.22,1.13-.03.19-.06.37-.09.56-.09.57-.17,1.15-.22,1.75-.35,3.7,0,6.8,1.06,9.31.2.47.42.91.66,1.33.04.08.09.16.13.24.24.4.49.77.77,1.12.05.07.11.13.16.2.29.35.59.69.92,1,0,0,0,0,0,0,.33.31.69.58,1.06.84.37.26.76.5,1.18.71,2.2,1.12,4.89,1.6,8.06,1.46,4.88-.23,8.85-1.85,11.91-4.87,3.05-3.01,4.84-7.28,5.37-12.8.35-3.66,0-6.74-1.06-9.23-.9-2.12-2.23-3.75-3.97-4.89Zm-5.2,17.89c-.63.91-1.45,1.61-2.46,2.09s-2.19.75-3.54.81c-.47.02-.91,0-1.33-.03-.14-.01-.26-.04-.39-.05-.27-.04-.54-.08-.79-.14-.14-.04-.27-.08-.4-.12-.22-.07-.43-.15-.62-.25-.12-.06-.24-.12-.36-.19-.26-.15-.5-.31-.72-.5-.5-.44-.84-.99-1.07-1.64-.26-.75-.36-1.64-.26-2.68.18-1.93.9-3.42,2.17-4.48,1.26-1.06,2.9-1.64,4.92-1.73.5-.02.96-.01,1.4.03,1.35.12,2.43.54,3.24,1.26,1.07.95,1.52,2.38,1.34,4.29-.12,1.31-.5,2.42-1.12,3.34Z" style="fill:#39bba0; stroke:#062935; stroke-linecap:round; stroke-linejoin:round; stroke-width:.75px;"/><path d="m175.94,28.99s-.07-.04-.11-.05c.04.01.08.04.11.05Z" style="fill:#39bba0; stroke:#062935; stroke-linecap:round; stroke-linejoin:round; stroke-width:.75px;"/><path d="m209.93,15.49c-.05-.11-.08-.24-.13-.35-.9-2.12-2.23-3.75-3.96-4.89-.3-.2-.61-.38-.93-.55-2.21-1.13-4.91-1.63-8.11-1.48-4.85.23-8.81,1.85-11.86,4.87-3.06,3.01-4.85,7.26-5.37,12.75-.04.44-.07.86-.09,1.29-.16,3.14.22,5.81,1.16,8.02.2.47.42.91.66,1.33.04.08.09.16.13.24.24.4.49.77.77,1.12.05.07.11.13.16.2.29.35.59.69.92,1,0,0,0,0,0,0,.1.09.21.16.31.24.24.2.49.41.75.59.37.26.76.5,1.18.71,2.2,1.12,4.89,1.6,8.07,1.46,4.87-.23,8.84-1.85,11.9-4.87,1.84-1.82,3.22-4.11,4.14-6.84.6-1.79,1.02-3.77,1.22-5.95.33-3.49.02-6.46-.93-8.88Zm-9.3,12.65c-.63.91-1.45,1.61-2.46,2.09-1.01.48-2.19.75-3.54.81-.47.02-.91,0-1.33-.02-.14-.01-.26-.04-.39-.06-.27-.04-.54-.08-.79-.14-.14-.04-.27-.08-.4-.12-.22-.07-.43-.15-.62-.25-.12-.06-.24-.12-.36-.19-.08-.05-.17-.08-.24-.13,0,0-.05-.04-.12-.09-.23-.19-.75-.66-1.13-1.28-.12-.2-.23-.41-.31-.64-.26-.75-.36-1.64-.26-2.68.18-1.93.9-3.42,2.17-4.48,1.26-1.06,2.9-1.64,4.92-1.73.5-.02.96-.01,1.4.03,1.09.1,1.99.39,2.72.88h.05c.17.13.32.25.47.38,1.07.95,1.52,2.38,1.34,4.29-.12,1.31-.5,2.42-1.12,3.34Z" style="fill:#39bba0; stroke:#062935; stroke-linecap:round; stroke-linejoin:round; stroke-width:.75px;"/><path d="m199.94,20.15h-.05c.18.1.36.22.52.37-.15-.13-.3-.25-.47-.37Z" style="fill:#39bba0; stroke:#062935; stroke-linecap:round; stroke-linejoin:round; stroke-width:.75px;"/><path d="m191.73,30.69c-.22-.07-.43-.15-.62-.25" style="fill:#39bba0; stroke:#062935; stroke-linecap:round; stroke-linejoin:round; stroke-width:.75px;"/><path d="m194.64,31.04c-.47.02-.91,0-1.33-.02" style="fill:#39bba0; stroke:#062935; stroke-linecap:round; stroke-linejoin:round; stroke-width:.75px;"/><path d="m192.92,30.96c-.27-.04-.54-.08-.79-.14" style="fill:#39bba0; stroke:#062935; stroke-linecap:round; stroke-linejoin:round; stroke-width:.75px;"/><path d="m205.84,10.26c-.3-.2-.61-.38-.93-.55" style="fill:#39bba0; stroke:#062935; stroke-linecap:round; stroke-linejoin:round; stroke-width:.75px;"/><path d="m181.3,36.48c-.24-.42-.46-.86-.66-1.33" style="fill:#39bba0; stroke:#062935; stroke-linecap:round; stroke-linejoin:round; stroke-width:.75px;"/><path d="m183.28,39.03c-.33-.31-.63-.64-.92-1" style="fill:#39bba0; stroke:#062935; stroke-linecap:round; stroke-linejoin:round; stroke-width:.75px;"/><path d="m183.29,39.03c.1.09.21.16.31.24" style="fill:#39bba0; stroke:#062935; stroke-linecap:round; stroke-linejoin:round; stroke-width:.75px;"/><path d="m183.6,39.28c.24.2.49.41.75.59" style="fill:#39bba0; stroke:#062935; stroke-linecap:round; stroke-linejoin:round; stroke-width:.75px;"/><path d="m182.2,37.83c-.27-.35-.53-.73-.77-1.12" style="fill:#39bba0; stroke:#062935; stroke-linecap:round; stroke-linejoin:round; stroke-width:.75px;"/><path d="m176.7,29.72c-.15-.28-.33-.49-.53-.63-.07-.05-.15-.07-.23-.1-.04-.01-.07-.04-.11-.05-.12-.03-.25-.05-.39-.04-.48.02-1.04.2-1.7.55-.66.35-1.3.74-1.92,1.16-.62.43-1.45.82-2.48,1.19-1.04.37-2.12.58-3.26.63-1.67.08-3.22-.11-4.66-.54-.36-.11-.68-.23-.99-.37-.1-.05-.19-.11-.28-.16-.76-.39-1.33-.88-1.69-1.48l7.54-.35c1.85-.09,3.56-.67,5.11-1.76.5-.35.96-.74,1.39-1.14.89-.83,1.63-1.74,2.2-2.76.23-.41.43-.82.6-1.24.48-1.11.77-2.24.88-3.38.04-.46.04-.91.02-1.37-.05-1.05-.26-2.08-.67-3.09-.58-1.46-1.54-2.66-2.9-3.63-.22-.16-.46-.28-.69-.41-.15-.08-.29-.18-.45-.25-.22-.1-.45-.18-.67-.25-.15-.05-.29-.12-.45-.16-.26-.07-.54-.11-.81-.15-.13-.02-.26-.06-.4-.07-.42-.04-.85-.05-1.29-.03l-20.11.94c-.72.03-1.42.35-2.1.93-.68.59-1.07,1.38-1.17,2.37-.04.45,0,2.28.1,5.51s.07,5.88-.13,7.96c-.18,1.95-.63,4.42-1.33,7.41-.7,3.01-1.1,5.03-1.2,6.08-.09.96.11,1.71.59,2.26.12.14.26.26.41.36.44.3,1,.44,1.67.4l7.01-.33c.9-.04,1.64-.37,2.23-.96.6-.6.94-1.38,1.03-2.34.07-.7.01-2.31-.16-4.85-.01-.18-.02-.34-.04-.51-.15-2.2-.22-3.46-.19-3.76.03-.34.17-.63.41-.82.24-.2.49-.31.72-.32.24-.01.44.04.6.16.15.12.26.25.31.41.06.16.13.37.23.66.27,1,.51,1.96.76,2.87.36,1.25.8,2.41,1.34,3.48.54,1.07,1.21,2.04,2,2.91.21.23.44.45.67.65.08.07.16.13.24.19.16.13.32.26.49.38.44.31.91.57,1.42.79,1.09.48,2.26.68,3.52.62,1.67-.08,3.26-.69,4.75-1.84,1.5-1.15,2.67-2.53,3.52-4.16.71-1.35,1.16-2.7,1.39-4.05.05-.28.1-.56.12-.83.11-1.2.02-2.1-.29-2.67Zm-14.82-8.57l1.56-.07c.61-.03,1.14.12,1.59.43.17.12.33.25.48.42.54.61.76,1.36.68,2.26-.08.89-.46,1.67-1.11,2.33-.66.67-1.41,1.03-2.25,1.07l-8.03.38.29-3.11.32-3.4,6.47-.3Z" style="fill:#39bba0; stroke:#062935; stroke-linecap:round; stroke-linejoin:round; stroke-width:.75px;"/><path d="m128.16,36.23l.37.25c-.1-.13-.23-.2-.37-.25Z" style="fill:#39bba0; stroke:#062935; stroke-linecap:round; stroke-linejoin:round; stroke-width:.75px;"/><path d="m129.36,29.99l.4.27c-.11-.14-.24-.22-.4-.27Z" style="fill:#39bba0; stroke:#062935; stroke-linecap:round; stroke-linejoin:round; stroke-width:.75px;"/><path d="m123.29,31.45c-.06-.06-.1-.14-.15-.21,0,0,0,0,0,0,.05.07.09.15.15.21Z" style="fill:#39bba0; stroke:#062935; stroke-linecap:round; stroke-linejoin:round; stroke-width:.75px;"/><path d="m139.61,28.37c-.07-.13-.16-.26-.26-.37-.14-.16-.29-.27-.45-.37-.11-.07-.24-.12-.36-.16-.04-.01-.09-.03-.14-.04-.17-.04-.34-.06-.53-.05l-12.93.61c-.27.01-.52.08-.76.18-.24.11-.45.26-.65.46-.2.2-.35.43-.47.69-.11.26-.19.51-.21.77-.04.38.02.72.18,1.01.03.06.07.1.1.15.05.07.09.15.15.21.03.03.07.06.1.09.09.08.17.16.28.21.27.14.58.21.94.2.57-.03,1.3-.37,2.18-1.01.87-.64,1.61-.98,2.21-1.01.14,0,.25.02.36.06.16.05.29.13.4.27.17.23.24.54.2.92-.09.93-.73,1.8-1.93,2.62-1.2.82-2.44,1.25-3.72,1.31-.32.01-.62,0-.92-.02-.06,0-.12,0-.18-.01-.29-.03-.56-.07-.83-.14-.05-.01-.09-.03-.14-.04-.25-.07-.49-.15-.72-.25-.03-.01-.07-.03-.1-.04-.25-.11-.48-.24-.71-.39-.27-.17-.53-.37-.77-.6-.43-.4-.76-.88-.99-1.43-.4-.95-.54-2.12-.41-3.52.02-.25.07-.48.11-.72.17-.95.51-1.79,1-2.54.05-.07.09-.15.14-.23.7-.98,1.49-1.7,2.37-2.13.88-.44,1.76-.68,2.66-.72,1.28-.06,2.51.12,3.68.55,1.17.42,2.28.84,3.32,1.27.39.16.78.28,1.16.37.54.13,1.06.2,1.57.2.09,0,.19,0,.28,0,1.41-.07,2.57-.75,3.49-2.07.91-1.31,1.14-2.83.67-4.55-.08-.31-.43-1.57-1.03-3.77-.28-1.07-.62-1.83-1.01-2.31-.18-.23-.42-.39-.71-.5-.04-.01-.08-.02-.12-.04-.11-.03-.22-.06-.34-.08-.05,0-.09-.02-.14-.02-.17-.02-.34-.03-.53-.02l-10.19.48c-1.58.07-3.16.41-4.72,1.01-1.56.6-3.02,1.43-4.39,2.49-1.36,1.07-2.59,2.32-3.68,3.75-1.09,1.43-2,3.07-2.7,4.91-.71,1.85-1.16,3.77-1.35,5.78-.46,4.81.33,8.69,2.36,11.63.23.33.47.64.72.93.08.09.16.17.23.26.18.2.36.39.55.57.09.09.18.17.27.25.2.18.41.34.62.5.08.06.15.12.23.17,1.57,1.08,3.4,1.58,5.49,1.48,1.32-.06,2.49-.34,3.51-.83,1.04-.49,1.86-1.13,2.49-1.92.41-.53.75-1.09,1.04-1.67.15-.29.31-.58.42-.89.36-.93.58-1.9.68-2.92.03-.32.16-.58.39-.8.23-.22.5-.33.8-.35.11,0,.2.02.29.05.14.05.27.12.37.25.17.21.24.48.21.8l-.3,3.16c-.12,1.24.17,2.26.87,3.08.19.22.4.39.62.55.61.42,1.35.62,2.23.58l4.09-.19c.6-.03,1.14-.28,1.61-.77.48-.48.75-1.05.82-1.73l.1-1.08,1.06-11.21c.05-.5-.03-.92-.23-1.29Z" style="fill:#39bba0; stroke:#062935; stroke-linecap:round; stroke-linejoin:round; stroke-width:.75px;"/><path d="m71.97,15.06c-.11-.13-.24-.24-.39-.33-.16-.1-.34-.17-.54-.22-.06-.01-.11-.03-.17-.04-.23-.04-.47-.07-.74-.05-.65.03-4.48.21-11.49.54-7,.33-10.68.5-11.04.52-.19,0-.38.04-.57.09-.23.06-.46.16-.69.28-.05.03-.1.05-.15.08-.23.13-.46.29-.68.48-.68.59-1.07,1.38-1.17,2.37-.04.45,0,2.28.1,5.51.1,3.23.06,5.88-.14,7.96-.18,1.95-.63,4.42-1.32,7.41-.7,3.01-1.1,5.03-1.2,6.08-.09.96.1,1.71.59,2.26.12.14.26.26.41.36.44.3.99.43,1.67.4.5-.02,4.4-.21,11.67-.55,7.27-.34,11.25-.53,11.94-.56.86-.04,1.53-.32,2-.83.46-.52.94-1.32,1.44-2.42.18-.36.56-1.2,1.15-2.53.59-1.33.94-2.11,1.05-2.34.77-1.84.98-3.25.6-4.22-.18-.47-.46-.82-.83-1.05-.02-.01-.05-.03-.07-.04-.18-.1-.37-.17-.58-.22-.02,0-.04,0-.06,0-.23-.04-.48-.06-.75-.05-.78.04-1.74.29-2.87.75s-2.2.97-3.2,1.51c-1.01.54-2.2,1.05-3.56,1.52-1.37.48-2.66.74-3.86.8-.35.02-.68.01-.99-.01-.1,0-.19-.03-.29-.04-.2-.02-.4-.05-.58-.09-.11-.02-.2-.06-.3-.09-.15-.05-.31-.1-.45-.16-.1-.04-.18-.09-.27-.14-.16-.09-.32-.18-.46-.29-.68-.55-1.01-1.25-1-2.07,0-.09-.01-.18,0-.28.05-.54.25-1.05.59-1.51.34-.45.79-.83,1.34-1.11.55-.27,1.13-.43,1.77-.46.78-.04,1.67.23,2.67.8.28.16.54.29.78.4.64.29,1.17.44,1.58.42.57-.03,1.08-.23,1.53-.61.46-.39.71-.87.76-1.44,0-.06,0-.11,0-.17.01-.53-.14-.95-.47-1.26-.08-.07-.16-.13-.25-.19-.15-.09-.31-.17-.49-.21-.04-.01-.08-.02-.11-.03-.19-.04-.39-.06-.6-.05l-5.07.24c-.6.03-1.15-.05-1.68-.23-.51-.18-.93-.48-1.23-.89-.3-.41-.43-.88-.38-1.39.01-.15.05-.29.1-.43.17-.58.56-1.09,1.19-1.53.78-.54,1.62-.84,2.51-.88,1.14-.05,2.39.17,3.76.68,1.37.51,2.7,1.02,3.99,1.55,1.29.52,2.43.77,3.42.72,1.41-.07,2.57-.75,3.48-2.07.91-1.31,1.14-2.83.67-4.55-.04-.13-.14-.46-.28-.99-.14-.53-.28-1.06-.41-1.57s-.24-.92-.34-1.2c-.08-.28-.16-.54-.24-.79-.14-.4-.28-.73-.44-1.01-.11-.19-.22-.37-.33-.51Z" style="fill:#39bba0; stroke:#062935; stroke-linecap:round; stroke-linejoin:round; stroke-width:.75px;"/><polygon points="25.24 48.29 25.24 48.28 25.24 48.28 25.24 48.29" style="fill:#39bba0; stroke:#062935; stroke-linecap:round; stroke-linejoin:round; stroke-width:.75px;"/><path d="m39.7,38.93c.18-1.94-.03-3.25-.64-3.93-.1-.11-.21-.21-.34-.29-.1-.06-.22-.1-.33-.15-.06-.02-.11-.05-.17-.07-.18-.04-.38-.06-.6-.05-.54.03-1.15.26-1.84.7-.68.45-1.31.93-1.9,1.45-.59.52-1.36,1.01-2.33,1.46-.97.46-1.97.71-3.02.76-.95.04-1.91-.08-2.84-.39-.44-.14-.86-.32-1.27-.52-.13-.07-.25-.15-.38-.22-.31-.18-.63-.35-.91-.57-.54-.41-.99-.9-1.36-1.48-.15-.24-.29-.48-.41-.75-.42-.91-.57-1.92-.47-3,.12-1.31.64-2.49,1.54-3.54.91-1.06,1.94-1.62,3.1-1.67,1.02-.05,2.04.16,3.05.62,1.01.46,2.04.92,3.1,1.4s2.14.69,3.25.64c1.41-.07,2.57-.75,3.49-2.07.91-1.31,1.14-2.83.67-4.56-.6-2.19-.94-3.44-1.03-3.76-.29-1.04-.76-1.82-1.41-2.37-.12-.1-.26-.17-.4-.25-.08-.04-.15-.09-.24-.12-.12-.05-.26-.1-.4-.14-.09-.03-.17-.06-.27-.08-.16-.04-.35-.06-.53-.08-.09-.01-.17-.03-.27-.03-.29-.02-.59-.02-.92,0-1.28.06-2.61.5-3.97,1.31-1.36.81-2.58,1.78-3.67,2.93-1.09,1.15-2.19,2.5-3.31,4.06-1.11,1.56-2.04,2.97-2.77,4.22-.73,1.26-1.44,2.54-2.13,3.84.28-1.89.73-4.29,1.38-7.21.65-2.92.99-4.63,1.04-5.14.03-.35,0-.65-.04-.94-.09-.54-.31-.99-.69-1.34-.13-.12-.27-.23-.42-.32-.04-.02-.08-.04-.11-.06-.1-.06-.21-.11-.32-.16-.05-.02-.1-.04-.15-.06-.11-.04-.21-.06-.32-.09-.05,0-.09-.02-.14-.03-.16-.02-.32-.03-.48-.03l-7,.33c-.72.03-1.42.35-2.1.93-.68.59-1.07,1.38-1.17,2.37-.04.45,0,2.28.1,5.51s.07,5.88-.13,7.96c-.18,1.95-.63,4.42-1.33,7.41-.7,3.01-1.1,5.03-1.2,6.08-.09.96.1,1.71.59,2.26.12.14.26.26.41.36.44.3,1,.44,1.67.4l7-.33c.9-.04,1.64-.37,2.24-.96.6-.6.94-1.38,1.03-2.34.09-.96.07-2.65-.06-5.09,0-.15-.01-.29-.02-.44-.1-2.18-.13-3.53-.09-4.03.03-.32.16-.58.39-.8.22-.22.47-.33.74-.34.19,0,.34,0,.47.05.05.01.09.05.14.08.06.05.12.11.17.19.08.14.14.24.17.3.04.07.08.2.12.41.04.2.06.32.06.35.14.44.55,1.88,1.25,4.32.44,1.6,1.1,3,1.97,4.19.2.27.4.52.62.77.06.07.13.14.2.21.16.17.34.34.51.5.07.06.14.13.21.19.24.2.49.4.75.57,0,0,0,0,0,0,0,0,0,0,0,0,0,0,0,0,0,0,.29.2.6.38.92.54,1.28.65,2.67.95,4.16.88,1.74-.08,3.32-.7,4.74-1.84,1.13-.91,2.03-1.96,2.74-3.13.18-.31.36-.62.52-.94.76-1.58,1.22-3.19,1.38-4.85Z" style="fill:#39bba0; stroke:#062935; stroke-linecap:round; stroke-linejoin:round; stroke-width:.75px;"/></g></g></svg>