<?xml version="1.0" encoding="UTF-8"?><svg id="b" xmlns="http://www.w3.org/2000/svg" width="920.1" height="94.81" viewBox="0 0 920.1 94.81"><g id="c"><rect x="1" y="1" width="41.39" height="92.81" rx="10.88" ry="10.88" style="fill:#fdf9d5; stroke:#21351e; stroke-miterlimit:10; stroke-width:2px;"/><rect x="43.11" y="1" width="41.39" height="92.81" rx="10.88" ry="10.88" style="fill:#fdf9d5; stroke:#21351e; stroke-miterlimit:10; stroke-width:2px;"/><rect x="85.02" y="1" width="41.39" height="92.81" rx="10.88" ry="10.88" style="fill:#fdf9d5; stroke:#21351e; stroke-miterlimit:10; stroke-width:2px;"/><path d="m28.03,1h28.26v52.48c0,6.01-4.88,10.88-10.88,10.88h-6.49c-6.01,0-10.88-4.88-10.88-10.88V1h0Z" style="fill:#2b347d; stroke:#21351e; stroke-miterlimit:10; stroke-width:2px;"/><path d="m70.38,1h28.26v52.48c0,6.01-4.88,10.88-10.88,10.88h-6.49c-6.01,0-10.88-4.88-10.88-10.88V1h0Z" style="fill:#2b347d; stroke:#21351e; stroke-miterlimit:10; stroke-width:2px;"/><g><path d="m259.98,16.61c0,1.02-.51,5.23-1.53,12.65-1.02,7.41-1.53,13.48-1.53,18.21,0,4.43.51,10.05,1.53,16.84,1.02,6.8,1.53,11.39,1.53,13.79,0,2.18-.65,3.93-1.96,5.23-1.31,1.31-3.05,1.96-5.23,1.96h-17.01c-2.11,0-3.83-.65-5.18-1.96-1.35-1.31-2.02-3.05-2.02-5.23,0-2.4.51-6.99,1.53-13.79,1.02-6.79,1.53-12.41,1.53-16.84,0-1.89-.07-3.93-.22-6.11-.07-1.02-.35-1.82-.82-2.4-.47-.58-1.07-.87-1.8-.87-1.74,0-3.65,2-5.72,6-2.07,4-4.25,8.98-6.54,14.93-2.29,5.96-4.05,9.96-5.29,11.99-2.04,3.56-4.51,5.36-7.41,5.4-2.91.04-5.41-1.76-7.52-5.4-.44-.87-1.22-2.41-2.34-4.63-1.13-2.22-2.25-4.45-3.38-6.71-1.13-2.25-2.42-4.7-3.87-7.36-1.45-2.65-2.82-4.98-4.09-6.98-1.27-2-2.56-3.65-3.87-4.96s-2.44-1.96-3.38-1.96c-1.67,0-2.51.98-2.51,2.94v5.67c0,3.93.98,9.47,2.94,16.62,1.96,7.16,2.94,12.01,2.94,14.55,0,1.96-.69,3.63-2.07,5.01-1.38,1.38-3.09,2.07-5.12,2.07s-3.83-.65-5.18-1.96c-1.35-1.31-2.02-3.02-2.02-5.12,0-2.4.51-7.01,1.53-13.85,1.02-6.83,1.53-12.46,1.53-16.9,0-4.72-.51-10.79-1.53-18.21-1.02-7.41-1.53-11.63-1.53-12.65,0-2.25.76-4.01,2.29-5.29,1.53-1.27,3.16-1.91,4.91-1.91h11.45c2.25,0,4.38.54,6.38,1.64,2,1.09,3.51,2.54,4.52,4.36.22.29,1.38,2.51,3.49,6.65,2.11,4.14,4.34,8.34,6.7,12.59,2.36,4.25,4.27,7.43,5.72,9.54,1.09,1.45,2.25,2.18,3.49,2.18s2.29-.65,3.16-1.96c1.16-1.67,2.54-3.94,4.14-6.81,1.6-2.87,3.25-5.94,4.96-9.21,1.71-3.27,2.89-5.45,3.54-6.54.94-1.67,1.65-2.89,2.13-3.65.47-.76,1.11-1.74,1.91-2.94.8-1.2,1.51-2.05,2.13-2.56.62-.51,1.38-1.07,2.29-1.69.91-.62,1.89-1.04,2.94-1.25,1.05-.22,2.2-.33,3.43-.33h8.94c1.74,0,3.36.64,4.85,1.91,1.49,1.27,2.23,3.04,2.23,5.29Z" style="fill:#fdf9d5;"/><path d="m252.78,86.87h-17.01c-2.52,0-4.64-.81-6.28-2.41-1.66-1.61-2.49-3.75-2.49-6.37s.5-7.09,1.54-14.02c1-6.69,1.51-12.28,1.51-16.61,0-1.83-.07-3.85-.21-6-.05-.67-.21-1.18-.47-1.51-.2-.24-.36-.29-.57-.29-.28,0-1.78.25-4.32,5.14-2.03,3.93-4.21,8.9-6.47,14.77-2.35,6.11-4.12,10.11-5.41,12.25-2.3,4.03-5.25,6.11-8.74,6.16-3.45,0-6.5-2.04-8.91-6.18-.48-.96-1.26-2.5-2.39-4.71-1.13-2.22-2.26-4.46-3.38-6.71-1.12-2.23-2.41-4.69-3.84-7.31-1.43-2.61-2.79-4.93-4.04-6.89-1.21-1.89-2.44-3.47-3.65-4.69-1.43-1.43-2.14-1.5-2.26-1.5-.54,0-.93,0-.93,1.36v5.67c0,3.77.97,9.22,2.89,16.21,2.02,7.37,3,12.26,3,14.97,0,2.39-.85,4.45-2.53,6.13-1.68,1.68-3.78,2.53-6.24,2.53s-4.64-.81-6.28-2.41c-1.66-1.61-2.49-3.72-2.49-6.26s.5-7.11,1.54-14.08c1-6.73,1.51-12.34,1.51-16.66,0-4.62-.51-10.68-1.51-17.99-1.38-10.05-1.54-12.15-1.54-12.86,0-2.73.96-4.92,2.86-6.5,1.81-1.51,3.8-2.27,5.92-2.27h11.45c2.51,0,4.91.62,7.13,1.83,2.22,1.21,3.94,2.86,5.1,4.9.2.29.74,1.23,3.56,6.78,2.09,4.1,4.33,8.32,6.68,12.54,2.33,4.19,4.23,7.35,5.64,9.41.73.98,1.48,1.5,2.19,1.5.43,0,1.09-.13,1.85-1.26,1.15-1.66,2.52-3.9,4.08-6.71,1.59-2.86,3.25-5.95,4.94-9.17,1.71-3.27,2.91-5.5,3.59-6.62.94-1.66,1.66-2.9,2.14-3.67.48-.77,1.12-1.77,1.94-2.99.89-1.33,1.69-2.28,2.43-2.9.66-.54,1.46-1.14,2.41-1.78,1.08-.73,2.26-1.24,3.51-1.49,1.15-.24,2.41-.36,3.75-.36h8.94c2.12,0,4.1.77,5.88,2.28,1.85,1.58,2.79,3.77,2.79,6.49,0,.7-.16,2.79-1.54,12.86-1,7.3-1.51,13.35-1.51,17.99,0,4.34.51,9.93,1.51,16.61,1.04,6.94,1.54,11.53,1.54,14.02s-.82,4.74-2.42,6.35c-1.61,1.61-3.75,2.42-6.35,2.42Zm-23.98-50.36c1.2,0,2.25.5,3.02,1.45.68.84,1.07,1.94,1.17,3.28.15,2.23.22,4.32.22,6.22,0,4.49-.52,10.23-1.54,17.08-1,6.68-1.51,11.24-1.51,13.56,0,1.75.5,3.09,1.54,4.1,1.05,1.02,2.38,1.51,4.08,1.51h17.01c1.76,0,3.11-.49,4.12-1.5,1.01-1.01,1.5-2.35,1.5-4.11,0-2.31-.51-6.87-1.51-13.56-1.02-6.83-1.54-12.58-1.54-17.08,0-4.78.52-10.98,1.54-18.42,1.25-9.11,1.51-11.79,1.51-12.43,0-1.78-.55-3.12-1.68-4.09-1.21-1.03-2.46-1.53-3.82-1.53h-8.94c-1.13,0-2.18.1-3.11.29-.84.17-1.64.51-2.38,1.01-.86.59-1.59,1.12-2.17,1.6-.34.28-.93.9-1.81,2.22-.79,1.18-1.41,2.15-1.88,2.9-.47.75-1.17,1.95-2.1,3.6-.66,1.11-1.84,3.28-3.52,6.5-1.7,3.25-3.38,6.36-4.98,9.25-1.61,2.89-3.03,5.23-4.23,6.95-1.45,2.18-3.23,2.64-4.46,2.64-1.76,0-3.35-.95-4.75-2.81-1.51-2.19-3.46-5.44-5.84-9.72-2.36-4.25-4.63-8.51-6.73-12.64-2.7-5.31-3.26-6.28-3.37-6.45l-.09-.14c-.88-1.57-2.16-2.79-3.9-3.75-1.76-.96-3.65-1.44-5.62-1.44h-11.45c-1.37,0-2.65.5-3.89,1.54-1.16.96-1.72,2.3-1.72,4.07,0,.53.2,2.86,1.51,12.43,1.02,7.46,1.54,13.65,1.54,18.42,0,4.48-.52,10.25-1.54,17.13-1,6.72-1.51,11.3-1.51,13.61,0,1.68.5,2.99,1.54,3.99,1.05,1.02,2.38,1.51,4.08,1.51s2.92-.53,4.01-1.61,1.61-2.36,1.61-3.9c0-2.39-.97-7.15-2.89-14.14-1.99-7.26-3-12.99-3-17.04v-5.67c0-2.83,1.53-4.52,4.09-4.52,1.39,0,2.87.79,4.5,2.43,1.38,1.38,2.75,3.14,4.09,5.23,1.28,2.02,2.68,4.4,4.14,7.06,1.45,2.66,2.76,5.15,3.9,7.41,1.13,2.25,2.25,4.48,3.38,6.7,1.13,2.22,1.91,3.77,2.35,4.64,1.77,3.05,3.82,4.59,6.09,4.52,2.33-.03,4.31-1.53,6.06-4.6,1.2-1.98,2.94-5.93,5.18-11.77,2.3-5.99,4.52-11.07,6.61-15.1,2.42-4.67,4.69-6.85,7.13-6.85Z" style="fill:#21351e;"/><g><path d="m348.93,16.61c0,1.16-.26,3.47-.76,6.92-.51,3.45-1.02,7.38-1.53,11.77-.51,4.4-.76,8.34-.76,11.83v.87c0,8.36-1.58,15.41-4.74,21.15-3.16,5.74-7.54,9.97-13.14,12.7-5.6,2.72-12.32,4.09-20.17,4.09-11.85,0-21.13-3.2-27.85-9.59-6.72-6.4-10.08-15.84-10.08-28.34v-.87c0-4.65-.51-10.65-1.53-17.99-1.02-7.34-1.53-11.52-1.53-12.54,0-2.25.76-4.01,2.29-5.29,1.53-1.27,3.16-1.91,4.91-1.91h20.06c2.62,0,4.69.6,6.21,1.8,1.53,1.2,2.29,3,2.29,5.4,0,1.45-.44,3.32-1.31,5.61-.87,2.29-1.85,4.51-2.94,6.65-1.09,2.14-2.07,4.89-2.94,8.23-.87,3.34-1.31,6.69-1.31,10.03,0,5.01,1.09,8.67,3.27,10.96,2.18,2.29,5.67,3.43,10.47,3.43,3.27,0,5.9-.51,7.9-1.53,2-1.02,3.49-2.58,4.47-4.69.98-2.11,1.47-4.83,1.47-8.18s-.45-6.69-1.36-10.03c-.91-3.34-1.89-6.09-2.94-8.23-1.05-2.14-2.02-4.36-2.89-6.65-.87-2.29-1.31-4.16-1.31-5.61,0-2.4.76-4.2,2.29-5.4,1.53-1.2,3.6-1.8,6.21-1.8h20.06c1.74,0,3.38.64,4.91,1.91,1.53,1.27,2.29,3.04,2.29,5.29Z" style="fill:#fdf9d5;"/><path d="m307.83,87.52c-12.21,0-21.95-3.37-28.94-10.03-7.02-6.67-10.57-16.6-10.57-29.49v-.87c0-4.55-.51-10.53-1.51-17.77-1.38-9.95-1.54-12.05-1.54-12.75,0-2.73.96-4.92,2.86-6.5,1.81-1.51,3.8-2.27,5.92-2.27h20.06c2.97,0,5.39.72,7.19,2.14,1.92,1.51,2.89,3.74,2.89,6.64,0,1.66-.46,3.68-1.41,6.18-.89,2.33-1.9,4.62-3.01,6.8-1.03,2.03-1.98,4.7-2.82,7.91-.83,3.2-1.26,6.44-1.26,9.63,0,4.57.95,7.89,2.84,9.87,1.86,1.95,5,2.94,9.32,2.94,3,0,5.42-.46,7.19-1.35,1.69-.86,2.92-2.15,3.75-3.95.88-1.89,1.32-4.41,1.32-7.51s-.44-6.42-1.31-9.62c-.88-3.23-1.83-5.9-2.84-7.95-1.07-2.17-2.06-4.45-2.95-6.78-.95-2.49-1.41-4.51-1.41-6.18,0-2.9.97-5.13,2.89-6.64,1.8-1.42,4.22-2.14,7.19-2.14h20.06c2.11,0,4.1.77,5.92,2.27,1.9,1.58,2.86,3.77,2.86,6.5,0,1.25-.26,3.59-.78,7.15-.51,3.44-1.02,7.39-1.52,11.72-.5,4.31-.75,8.23-.75,11.65v.87c0,8.59-1.66,15.96-4.94,21.91-3.31,6-7.96,10.5-13.83,13.36-5.79,2.82-12.81,4.25-20.86,4.25Zm-33.79-76.53c-1.37,0-2.65.5-3.89,1.54-1.16.97-1.72,2.3-1.72,4.07,0,.53.2,2.85,1.51,12.32,1.02,7.38,1.54,13.51,1.54,18.2v.87c0,11.99,3.23,21.14,9.59,27.2,6.39,6.08,15.39,9.16,26.76,9.16,7.57,0,14.12-1.32,19.48-3.93,5.27-2.57,9.46-6.62,12.44-12.04,3.02-5.48,4.55-12.34,4.55-20.39v-.87c0-3.54.26-7.58.77-12.01.5-4.37,1.02-8.35,1.53-11.82.5-3.37.75-5.62.75-6.69,0-1.78-.56-3.11-1.72-4.07-1.25-1.04-2.52-1.54-3.89-1.54h-20.06c-2.24,0-4,.49-5.24,1.46-1.13.89-1.69,2.25-1.69,4.15,0,1.25.41,2.95,1.2,5.05.85,2.24,1.8,4.43,2.83,6.52,1.09,2.23,2.12,5.09,3.05,8.51.94,3.47,1.42,6.98,1.42,10.45s-.54,6.54-1.62,8.84c-1.13,2.43-2.87,4.25-5.19,5.43-2.21,1.13-5.11,1.7-8.62,1.7-5.22,0-9.13-1.32-11.61-3.92-2.46-2.58-3.71-6.64-3.71-12.05,0-3.46.46-6.97,1.36-10.43.9-3.44,1.93-6.31,3.06-8.55,1.06-2.08,2.03-4.27,2.88-6.5.8-2.1,1.2-3.8,1.2-5.05,0-1.9-.55-3.26-1.69-4.15-1.23-.97-3-1.46-5.24-1.46h-20.06Z" style="fill:#21351e;"/></g><g><path d="m416.3,54.33c3.12,0,5.18,1.31,6.16,3.93.98,2.62.74,5.67-.71,9.16-.22.51-1.64,4.14-4.25,10.9-.95,2.4-1.95,4.16-3,5.29-1.05,1.13-2.6,1.69-4.63,1.69h-53.52c-2.62,0-4.32-1.2-5.12-3.6-.8-2.4-.26-4.43,1.64-6.11.29-.29,3.67-3.4,10.14-9.32,6.47-5.92,12.9-11.81,19.29-17.66,6.39-5.85,9.66-8.85,9.81-8.99,1.53-1.38,1.92-3,1.2-4.85-.73-1.85-2.07-2.78-4.03-2.78-2.33,0-4.62.42-6.87,1.25-2.25.84-4.11,1.74-5.56,2.73-1.45.98-3.22,1.89-5.29,2.72-2.07.84-4.13,1.25-6.16,1.25-3.42,0-6.09-1.45-8.01-4.36-1.93-2.91-2.13-6.36-.6-10.36.51-1.31,1.64-4.21,3.38-8.72.94-2.47,1.94-4.27,3-5.4,1.05-1.13,2.6-1.69,4.63-1.69h50.25c2.62,0,4.32,1.22,5.12,3.65.8,2.43.25,4.49-1.64,6.16-.44.36-7.05,6.42-19.84,18.15-12.79,11.74-19.26,17.68-19.4,17.82-1.53,1.38-1.93,3-1.2,4.85.73,1.85,2.07,2.78,4.03,2.78,3.71,0,7.59-.71,11.66-2.13,4.07-1.42,7.81-2.83,11.23-4.25,3.42-1.42,6.18-2.13,8.28-2.13Z" style="fill:#fdf9d5;"/><path d="m409.87,86.87h-53.52c-3.31,0-5.6-1.62-6.62-4.68-1-3-.28-5.69,2.09-7.79.14-.15,1.52-1.43,10.12-9.3l19.3-17.66c8.2-7.5,9.64-8.83,9.77-8.96,1.08-.98,1.32-1.91.83-3.14-.49-1.25-1.25-1.78-2.56-1.78-2.13,0-4.25.39-6.32,1.15-2.12.79-3.88,1.65-5.22,2.55-1.55,1.04-3.43,2.01-5.58,2.88-2.25.91-4.52,1.37-6.75,1.37-3.97,0-7.1-1.7-9.33-5.07-2.21-3.34-2.47-7.31-.76-11.79l3.38-8.73c1.02-2.68,2.11-4.61,3.32-5.9,1.36-1.45,3.3-2.19,5.79-2.19h50.25c3.31,0,5.61,1.64,6.62,4.74,1,3.04.27,5.75-2.09,7.84-.35.29-4.03,3.65-19.82,18.13-15.63,14.34-19.16,17.59-19.37,17.79-1.08.98-1.31,1.91-.83,3.14.49,1.25,1.25,1.78,2.56,1.78,3.51,0,7.26-.69,11.14-2.04,4-1.39,7.75-2.81,11.14-4.22,3.64-1.51,6.55-2.25,8.89-2.25,4.78,0,6.79,2.69,7.64,4.95,1.12,2.99.88,6.46-.73,10.32-.15.35-1,2.51-4.24,10.86-1.03,2.62-2.12,4.51-3.32,5.79-1.36,1.45-3.31,2.19-5.79,2.19Zm-20.6-56.47c2.63,0,4.53,1.31,5.5,3.78.96,2.45.39,4.79-1.61,6.6-.02.02-.2.2-9.8,8.99l-19.29,17.66c-2.39,2.19-9.67,8.85-10.09,9.27-1.49,1.32-1.86,2.69-1.26,4.49.58,1.74,1.7,2.52,3.62,2.52h53.52c1.59,0,2.73-.39,3.48-1.19.91-.98,1.81-2.59,2.68-4.79,2.64-6.83,4.04-10.41,4.27-10.94,1.28-3.07,1.51-5.76.68-7.98-.74-1.98-2.23-2.9-4.68-2.9-1.89,0-4.47.67-7.68,2.01-3.45,1.43-7.26,2.87-11.32,4.28-4.22,1.47-8.32,2.21-12.18,2.21-2.63,0-4.54-1.31-5.5-3.78-.97-2.48-.42-4.76,1.61-6.6.02-.02.19-.19,19.4-17.82,17.22-15.8,19.6-17.95,19.9-18.2,1.39-1.23,1.75-2.61,1.15-4.45-.58-1.77-1.7-2.56-3.62-2.56h-50.25c-1.59,0-2.73.39-3.48,1.19-.91.97-1.81,2.62-2.68,4.88l-3.38,8.73c-1.34,3.52-1.2,6.44.44,8.91,1.63,2.46,3.82,3.65,6.7,3.65,1.82,0,3.7-.38,5.57-1.14,1.95-.79,3.63-1.65,5-2.57,1.55-1.05,3.53-2.02,5.89-2.9,2.42-.9,4.92-1.35,7.42-1.35Z" style="fill:#21351e;"/></g><g><path d="m461.21,16.61c0,1.02-.51,5.23-1.53,12.65-1.02,7.41-1.53,13.48-1.53,18.21,0,4.43.51,10.05,1.53,16.84,1.02,6.8,1.53,11.39,1.53,13.79,0,2.18-.65,3.93-1.96,5.23-1.31,1.31-3.05,1.96-5.23,1.96h-17.01c-2.18,0-3.92-.65-5.23-1.96-1.31-1.31-1.96-3.05-1.96-5.23,0-2.4.51-6.99,1.53-13.79,1.02-6.79,1.53-12.41,1.53-16.84,0-4.72-.51-10.79-1.53-18.21-1.02-7.41-1.53-11.63-1.53-12.65,0-2.25.76-4.01,2.29-5.29,1.53-1.27,3.16-1.91,4.9-1.91h17.01c1.74,0,3.38.64,4.9,1.91,1.53,1.27,2.29,3.04,2.29,5.29Z" style="fill:#fdf9d5;"/><path d="m454.02,86.87h-17.01c-2.6,0-4.74-.81-6.35-2.42-1.61-1.61-2.43-3.75-2.43-6.35s.5-7.09,1.54-14.02c1-6.69,1.51-12.28,1.51-16.61,0-4.63-.51-10.68-1.51-17.99-1.38-10.05-1.54-12.15-1.54-12.86,0-2.73.96-4.92,2.86-6.5,1.81-1.51,3.8-2.27,5.92-2.27h17.01c2.11,0,4.1.77,5.92,2.27,1.9,1.58,2.86,3.77,2.86,6.5,0,.7-.16,2.79-1.54,12.86-1,7.3-1.51,13.35-1.51,17.99,0,4.34.51,9.93,1.51,16.61,1.04,6.94,1.54,11.53,1.54,14.02s-.82,4.74-2.43,6.35c-1.61,1.61-3.75,2.42-6.35,2.42Zm-17.01-75.87c-1.37,0-2.65.5-3.89,1.54-1.16.97-1.72,2.3-1.72,4.07,0,.53.2,2.86,1.51,12.43,1.02,7.45,1.54,13.65,1.54,18.42,0,4.49-.52,10.23-1.54,17.08-1,6.68-1.51,11.24-1.51,13.56,0,1.76.49,3.11,1.5,4.12,1.01,1.01,2.36,1.5,4.11,1.5h17.01c1.76,0,3.11-.49,4.12-1.5,1.01-1.01,1.5-2.35,1.5-4.11,0-2.31-.51-6.87-1.51-13.56-1.03-6.83-1.55-12.58-1.55-17.08,0-4.78.52-10.98,1.54-18.42,1.25-9.1,1.51-11.78,1.51-12.43,0-1.78-.56-3.11-1.72-4.07-1.25-1.04-2.52-1.54-3.89-1.54h-17.01Z" style="fill:#21351e;"/></g><g><path d="m565.21,16.61c0,1.02-.51,5.23-1.53,12.65-1.02,7.41-1.53,13.48-1.53,18.21,0,4.43.51,10.05,1.53,16.84,1.02,6.8,1.53,11.39,1.53,13.79,0,2.18-.65,3.93-1.96,5.23s-3.05,1.96-5.23,1.96h-17.01c-2.11,0-3.83-.65-5.18-1.96-1.35-1.31-2.02-3.05-2.02-5.23,0-2.4.51-6.99,1.53-13.79,1.02-6.79,1.53-12.41,1.53-16.84,0-1.89-.07-3.93-.22-6.11-.07-1.02-.35-1.82-.82-2.4s-1.07-.87-1.8-.87c-1.74,0-3.65,2-5.72,6-2.07,4-4.25,8.98-6.54,14.93-2.29,5.96-4.05,9.96-5.29,11.99-2.04,3.56-4.51,5.36-7.41,5.4-2.91.04-5.41-1.76-7.52-5.4-.44-.87-1.22-2.41-2.34-4.63-1.13-2.22-2.25-4.45-3.38-6.71-1.13-2.25-2.42-4.7-3.87-7.36-1.45-2.65-2.82-4.98-4.09-6.98-1.27-2-2.56-3.65-3.87-4.96-1.31-1.31-2.44-1.96-3.38-1.96-1.67,0-2.51.98-2.51,2.94v5.67c0,3.93.98,9.47,2.94,16.62,1.96,7.16,2.94,12.01,2.94,14.55,0,1.96-.69,3.63-2.07,5.01s-3.09,2.07-5.12,2.07-3.83-.65-5.18-1.96c-1.35-1.31-2.02-3.02-2.02-5.12,0-2.4.51-7.01,1.53-13.85,1.02-6.83,1.53-12.46,1.53-16.9,0-4.72-.51-10.79-1.53-18.21-1.02-7.41-1.53-11.63-1.53-12.65,0-2.25.76-4.01,2.29-5.29,1.53-1.27,3.16-1.91,4.9-1.91h11.45c2.25,0,4.38.54,6.38,1.64,2,1.09,3.51,2.54,4.53,4.36.22.29,1.38,2.51,3.49,6.65,2.11,4.14,4.34,8.34,6.7,12.59,2.36,4.25,4.27,7.43,5.72,9.54,1.09,1.45,2.25,2.18,3.49,2.18s2.29-.65,3.16-1.96c1.16-1.67,2.54-3.94,4.14-6.81,1.6-2.87,3.25-5.94,4.96-9.21,1.71-3.27,2.89-5.45,3.54-6.54.94-1.67,1.65-2.89,2.12-3.65.47-.76,1.11-1.74,1.91-2.94.8-1.2,1.51-2.05,2.13-2.56.62-.51,1.38-1.07,2.29-1.69.91-.62,1.89-1.04,2.94-1.25,1.05-.22,2.2-.33,3.43-.33h8.94c1.74,0,3.36.64,4.85,1.91,1.49,1.27,2.23,3.04,2.23,5.29Z" style="fill:#fdf9d5;"/><path d="m558.02,86.87h-17.01c-2.52,0-4.64-.81-6.28-2.41-1.66-1.61-2.5-3.75-2.5-6.37s.5-7.09,1.54-14.02c1-6.69,1.51-12.27,1.51-16.61,0-1.83-.07-3.85-.22-6-.05-.67-.21-1.18-.47-1.51-.2-.24-.36-.29-.57-.29-.28,0-1.78.25-4.32,5.14-2.03,3.93-4.21,8.9-6.47,14.77-2.34,6.1-4.11,10.11-5.41,12.24-2.3,4.03-5.25,6.11-8.74,6.16-3.5.02-6.5-2.04-8.91-6.18-.48-.96-1.26-2.5-2.39-4.71-1.13-2.22-2.26-4.46-3.38-6.72-1.12-2.24-2.41-4.7-3.84-7.3-1.42-2.59-2.78-4.91-4.04-6.89-1.2-1.89-2.43-3.47-3.65-4.69-1.43-1.43-2.14-1.5-2.26-1.5-.54,0-.93,0-.93,1.36v5.67c0,3.77.97,9.22,2.89,16.21,2.02,7.36,3,12.26,3,14.97,0,2.39-.85,4.45-2.53,6.13-1.68,1.68-3.78,2.53-6.24,2.53s-4.64-.81-6.28-2.41c-1.66-1.61-2.49-3.72-2.49-6.26s.5-7.11,1.54-14.08c1-6.73,1.51-12.33,1.51-16.66,0-4.63-.51-10.68-1.51-17.99-1.38-10.05-1.54-12.15-1.54-12.86,0-2.73.96-4.92,2.86-6.5,1.81-1.51,3.8-2.27,5.92-2.27h11.45c2.51,0,4.91.62,7.13,1.83,2.22,1.21,3.94,2.86,5.1,4.9.2.29.73,1.23,3.56,6.78,2.07,4.08,4.32,8.3,6.68,12.54,2.32,4.18,4.22,7.35,5.64,9.41.73.98,1.48,1.5,2.19,1.5.43,0,1.09-.13,1.85-1.26,1.16-1.66,2.52-3.91,4.08-6.71,1.59-2.86,3.25-5.95,4.94-9.17,1.7-3.26,2.91-5.48,3.59-6.62.94-1.66,1.66-2.9,2.14-3.67.48-.77,1.12-1.77,1.94-2.99.89-1.34,1.69-2.29,2.43-2.9.65-.53,1.45-1.13,2.41-1.78,1.08-.73,2.26-1.24,3.51-1.5,1.14-.24,2.41-.36,3.75-.36h8.94c2.12,0,4.1.77,5.88,2.28,1.85,1.58,2.79,3.76,2.79,6.49,0,.7-.16,2.79-1.54,12.86-1,7.3-1.51,13.35-1.51,17.99,0,4.34.51,9.93,1.51,16.61,1.04,6.94,1.54,11.53,1.54,14.02s-.82,4.74-2.43,6.35-3.74,2.42-6.35,2.42Zm-23.98-50.36c1.2,0,2.25.5,3.02,1.46.68.84,1.07,1.94,1.17,3.28.15,2.23.22,4.32.22,6.22,0,4.49-.52,10.24-1.55,17.08-1,6.68-1.51,11.24-1.51,13.56,0,1.75.5,3.09,1.54,4.1,1.05,1.02,2.38,1.51,4.08,1.51h17.01c1.76,0,3.11-.49,4.11-1.5,1.01-1.01,1.5-2.36,1.5-4.12,0-2.31-.51-6.87-1.51-13.56-1.02-6.83-1.54-12.58-1.54-17.08,0-4.78.52-10.98,1.54-18.42,1.25-9.11,1.51-11.79,1.51-12.43,0-1.78-.55-3.12-1.68-4.09-1.21-1.03-2.46-1.53-3.82-1.53h-8.94c-1.13,0-2.18.1-3.11.29-.84.17-1.64.51-2.38,1.01-.87.59-1.6,1.13-2.17,1.6-.34.28-.93.9-1.82,2.22-.79,1.18-1.42,2.15-1.88,2.9-.47.75-1.16,1.95-2.09,3.6-.67,1.12-1.85,3.29-3.52,6.5-1.7,3.25-3.38,6.36-4.98,9.25-1.61,2.89-3.03,5.22-4.23,6.95-1.45,2.18-3.23,2.64-4.46,2.64-1.75,0-3.35-.95-4.75-2.81-1.52-2.2-3.47-5.45-5.84-9.72-2.38-4.28-4.64-8.53-6.73-12.64-2.71-5.32-3.26-6.28-3.37-6.45l-.09-.14c-.88-1.57-2.16-2.79-3.9-3.75-1.78-.97-3.62-1.44-5.62-1.44h-11.45c-1.37,0-2.65.5-3.89,1.54-1.16.97-1.72,2.3-1.72,4.07,0,.53.2,2.86,1.51,12.43,1.02,7.45,1.54,13.65,1.54,18.42,0,4.49-.52,10.25-1.54,17.13-1,6.72-1.51,11.3-1.51,13.61,0,1.68.5,2.99,1.54,3.99,1.05,1.02,2.38,1.51,4.08,1.51s2.92-.53,4.01-1.61c1.08-1.08,1.61-2.36,1.61-3.9,0-2.39-.97-7.15-2.89-14.14-1.99-7.26-3-12.99-3-17.04v-5.67c0-2.83,1.53-4.52,4.09-4.52,1.39,0,2.87.79,4.5,2.43,1.38,1.38,2.76,3.14,4.08,5.23,1.3,2.04,2.69,4.42,4.14,7.07,1.45,2.64,2.76,5.13,3.9,7.41,1.12,2.25,2.25,4.48,3.37,6.7,1.13,2.22,1.91,3.77,2.35,4.64,1.77,3.04,3.77,4.49,6.09,4.52,2.33-.03,4.31-1.53,6.06-4.6,1.2-1.98,2.94-5.93,5.18-11.77,2.3-5.99,4.53-11.07,6.61-15.1,2.42-4.67,4.69-6.85,7.13-6.85Z" style="fill:#21351e;"/></g><g><path d="m639.12,47.35c1.6,4.07,3.49,7.92,5.67,11.56,2.18,3.63,4.07,6.41,5.67,8.34s3,3.89,4.2,5.89c1.2,2,1.8,3.8,1.8,5.4,0,2.25-.73,3.94-2.18,5.07-1.45,1.13-3.23,1.69-5.34,1.69h-26.05c-1.67,0-3.29-.6-4.85-1.8-1.56-1.2-2.34-3-2.34-5.4,0-1.31.47-3.01,1.42-5.12.94-2.11,1.42-3.67,1.42-4.69,0-2.25-1.36-3.78-4.09-4.58-2.73-.8-6.56-1.2-11.5-1.2-2.4,0-4.43.06-6.1.16-1.67.11-3.25.37-4.74.76-1.49.4-2.6.96-3.32,1.69s-1.09,1.67-1.09,2.83c0,1.02.67,2.49,2.02,4.42,1.34,1.93,2.02,3.8,2.02,5.61.07,2.04-.6,3.76-2.02,5.18-1.42,1.42-3.14,2.12-5.18,2.12h-7.74c-1.96,0-3.65-.67-5.07-2.02-1.42-1.34-2.12-2.92-2.12-4.74,0-1.38.36-2.65,1.09-3.82.73-1.16,1.78-2.42,3.16-3.76,1.38-1.34,2.85-2.85,4.42-4.52,1.56-1.67,3.34-4.18,5.34-7.52,2-3.34,3.83-7.2,5.5-11.56.87-2.33,1.69-4.49,2.45-6.49.76-2,1.65-4.27,2.67-6.81.73-1.89,1.18-3.6,1.36-5.12.18-1.53.13-2.82-.16-3.87-.29-1.05-.62-2-.98-2.83-.36-.83-.73-1.74-1.09-2.73-.37-.98-.55-1.94-.55-2.89,0-2.33.76-4.11,2.29-5.34,1.53-1.23,3.16-1.85,4.91-1.85h25.51c5.23,0,7.85,2.4,7.85,7.19,0,.22-.02,1.16-.05,2.83-.04,1.67-.04,2.85,0,3.54.04.69.16,2.04.38,4.03.22,2,.53,3.82.93,5.45.4,1.63.98,3.78,1.74,6.43.76,2.65,1.69,5.47,2.78,8.45Zm-44.15,10.25h18.09c.73,0,1.36-.2,1.91-.6.54-.4.94-.91,1.2-1.53.25-.62.27-1.29.05-2.02-.51-1.82-1.16-3.85-1.96-6.11-.51-1.53-1-2.87-1.47-4.03-.47-1.16-1.04-2.43-1.69-3.82-.65-1.38-1.29-2.51-1.91-3.38-.62-.87-1.35-1.6-2.18-2.18-.84-.58-1.69-.87-2.56-.87-.51,0-1,.07-1.47.22-.47.15-.91.33-1.31.55-.4.22-.8.53-1.2.93s-.73.75-.98,1.04c-.26.29-.55.73-.87,1.31-.33.58-.58,1.02-.76,1.31-.18.29-.42.76-.71,1.42-.29.65-.49,1.11-.6,1.36-.11.26-.27.71-.49,1.36s-.36,1.06-.44,1.2l-3.49,9.05c-.22.73-.27,1.45-.16,2.18.11.73.44,1.35.98,1.85.55.51,1.22.76,2.02.76Z" style="fill:#fdf9d5;"/><path d="m648.93,86.87h-26.05c-2.02,0-3.97-.71-5.81-2.12-1.97-1.51-2.96-3.75-2.96-6.65,0-1.55.51-3.43,1.56-5.77,1.11-2.48,1.28-3.6,1.28-4.04,0-1.02-.34-2.29-2.95-3.06-2.57-.75-6.29-1.13-11.06-1.13-2.34,0-4.36.05-6,.16-1.55.1-3.05.34-4.44.71-1.19.32-2.1.76-2.62,1.28-.43.43-.63.97-.63,1.72,0,.24.12,1.21,1.73,3.51,1.53,2.19,2.3,4.38,2.3,6.52.08,2.43-.75,4.56-2.48,6.3-1.72,1.72-3.84,2.59-6.29,2.59h-7.74c-2.37,0-4.44-.82-6.16-2.45-1.74-1.65-2.62-3.63-2.62-5.89,0-1.68.45-3.24,1.33-4.65.79-1.27,1.93-2.63,3.4-4.05,1.36-1.33,2.83-2.83,4.36-4.47,1.48-1.58,3.21-4.02,5.14-7.25,1.94-3.24,3.75-7.05,5.39-11.31.87-2.32,1.69-4.48,2.45-6.48.77-2.01,1.66-4.28,2.68-6.84.67-1.74,1.1-3.34,1.26-4.72.16-1.32.12-2.41-.12-3.26-.27-.98-.58-1.86-.91-2.63-.37-.86-.75-1.79-1.12-2.81-.43-1.14-.64-2.3-.64-3.44,0-2.81.97-5.02,2.88-6.57,1.81-1.46,3.79-2.2,5.9-2.2h25.51c6.08,0,9.43,3.12,9.43,8.77,0,.22-.02,1.18-.05,2.87-.04,1.63-.04,2.78,0,3.42.03.65.15,1.94.37,3.95.21,1.92.51,3.69.89,5.25.39,1.59.95,3.67,1.73,6.37.75,2.59,1.67,5.39,2.74,8.33,1.56,3.96,3.42,7.76,5.55,11.3,2.13,3.54,3.99,6.28,5.53,8.14,1.64,1.98,3.1,4.02,4.34,6.08,1.34,2.24,2.02,4.33,2.02,6.21,0,2.76-.94,4.88-2.79,6.32-1.73,1.34-3.85,2.02-6.31,2.02Zm-46-25.94c5.06,0,9.08.42,11.95,1.26,4.32,1.27,5.22,4.02,5.22,6.1,0,1.27-.49,2.96-1.55,5.33-1.06,2.36-1.28,3.74-1.28,4.48,0,1.9.56,3.25,1.73,4.14,1.29.99,2.56,1.47,3.89,1.47h26.05c1.77,0,3.2-.44,4.37-1.36,1.06-.82,1.57-2.07,1.57-3.82,0-1.3-.53-2.84-1.57-4.58-1.15-1.92-2.52-3.84-4.06-5.69-1.65-1.98-3.6-4.86-5.81-8.54-2.22-3.7-4.16-7.66-5.78-11.79v-.03c-1.11-3.01-2.06-5.89-2.83-8.56-.79-2.74-1.36-4.86-1.76-6.49-.41-1.69-.74-3.59-.96-5.65-.23-2.1-.35-3.41-.39-4.13-.04-.73-.04-1.93,0-3.66.04-1.65.05-2.58.05-2.8,0-3.94-1.87-5.61-6.27-5.61h-25.51c-1.38,0-2.66.49-3.91,1.5-1.15.93-1.7,2.27-1.7,4.11,0,.76.15,1.54.45,2.34.35.96.71,1.84,1.06,2.65.39.9.75,1.92,1.06,3.04.35,1.27.42,2.73.21,4.48-.2,1.65-.69,3.5-1.46,5.5-1.02,2.56-1.91,4.82-2.67,6.81-.76,2-1.58,4.16-2.45,6.48-1.7,4.44-3.6,8.41-5.63,11.81-2.08,3.47-3.89,6.02-5.54,7.79-1.57,1.68-3.07,3.22-4.47,4.58-1.28,1.25-2.27,2.42-2.93,3.47-.57.91-.85,1.89-.85,2.98,0,1.38.53,2.55,1.63,3.59,1.12,1.06,2.43,1.58,3.98,1.58h7.74c1.61,0,2.94-.54,4.06-1.66,1.1-1.1,1.61-2.41,1.56-4.01,0-1.53-.58-3.12-1.73-4.76-1.57-2.25-2.3-3.94-2.3-5.32,0-1.59.52-2.92,1.55-3.95.92-.92,2.28-1.63,4.03-2.1,1.59-.43,3.29-.7,5.05-.81,1.71-.11,3.8-.17,6.21-.17Zm10.14-1.74h-18.09c-1.19,0-2.26-.41-3.09-1.19-.81-.75-1.3-1.69-1.47-2.77-.14-.96-.07-1.92.21-2.87l3.53-9.16c.12-.27.24-.61.41-1.13.24-.71.42-1.21.54-1.49.11-.26.32-.72.61-1.38.31-.71.58-1.24.81-1.61.17-.27.42-.69.72-1.24.39-.7.74-1.21,1.07-1.58.27-.3.62-.68,1.05-1.11.51-.51,1.03-.91,1.56-1.2.47-.26,1.01-.49,1.59-.67,1.78-.54,3.69-.32,5.4.87.99.69,1.85,1.55,2.57,2.57.67.94,1.36,2.16,2.05,3.61.65,1.37,1.23,2.68,1.72,3.9.48,1.19.99,2.58,1.51,4.13.8,2.26,1.47,4.34,1.98,6.18.32,1.05.28,2.08-.11,3.04-.37.89-.95,1.63-1.73,2.2-.81.6-1.77.9-2.84.9Zm-8.61-24.53c-.35,0-.68.05-1.01.15-.37.11-.71.26-1.01.42-.27.15-.55.37-.84.66-.37.37-.67.69-.91.96-.13.15-.35.44-.69,1.04-.34.61-.61,1.07-.8,1.37-.08.13-.27.47-.6,1.22-.29.65-.49,1.1-.6,1.35-.1.23-.24.64-.44,1.23-.32.96-.44,1.25-.53,1.41l-3.43,8.9c-.11.39-.15.88-.07,1.38.06.37.21.67.5.93.25.23.54.34.94.34h18.09c.39,0,.7-.09.97-.29.31-.23.53-.51.68-.86.07-.17.15-.46,0-.96-.5-1.8-1.15-3.82-1.94-6.03-.5-1.51-.99-2.84-1.45-3.97-.47-1.16-1.03-2.41-1.65-3.73-.61-1.29-1.21-2.35-1.77-3.14-.51-.72-1.11-1.32-1.79-1.8-.57-.39-1.11-.59-1.66-.59Z" style="fill:#21351e;"/></g><g><path d="m738.1,51.82c4.07,0,6.11,3.49,6.11,10.47,0,3.78-.75,7.43-2.24,10.96-1.49,3.53-3.83,6.52-7.03,8.99-3.2,2.47-6.91,3.71-11.12,3.71-3.63,0-7.09-.82-10.36-2.45-3.27-1.64-6.11-3.87-8.5-6.71-2.4-2.83-4.32-6.11-5.78-9.81-2.25-5.67-3.6-9.01-4.03-10.03,0-.07-.07-.34-.22-.82-.15-.47-.27-.78-.38-.93-.11-.15-.27-.38-.49-.71s-.49-.54-.82-.65-.71-.16-1.14-.16c-.65,0-1.24.24-1.74.71-.51.47-.76,1.07-.76,1.8,0,1.24.44,4.65,1.31,10.25.87,5.6,1.31,9.48,1.31,11.66s-.65,3.93-1.96,5.23c-1.31,1.31-3.05,1.96-5.23,1.96h-17.01c-2.18,0-3.92-.65-5.23-1.96-1.31-1.31-1.96-3.05-1.96-5.23,0-2.4.51-6.99,1.53-13.79,1.02-6.79,1.53-12.41,1.53-16.84,0-4.72-.51-10.79-1.53-18.21-1.02-7.41-1.53-11.63-1.53-12.65,0-2.25.76-4.01,2.29-5.29,1.53-1.27,3.16-1.91,4.9-1.91h17.01c1.74,0,3.38.64,4.9,1.91,1.53,1.27,2.29,3.04,2.29,5.29,0,1.16-.46,5.05-1.36,11.66-.91,6.61-1.47,12.07-1.69,16.35,1.38-2.91,2.82-5.76,4.31-8.56,1.49-2.8,3.42-5.92,5.78-9.37,2.36-3.45,4.74-6.43,7.14-8.94,2.4-2.51,5.16-4.61,8.29-6.32,3.12-1.71,6.25-2.56,9.37-2.56,3.34,0,5.87.65,7.58,1.96,1.71,1.31,3.03,3.16,3.98,5.56.29.73,1.42,3.63,3.38,8.72,1.53,4,1.33,7.45-.6,10.36-1.93,2.91-4.6,4.36-8.01,4.36-2.69,0-5.38-.6-8.07-1.8-2.69-1.2-5.32-2.38-7.9-3.54-2.58-1.16-5.11-1.74-7.58-1.74-2.83,0-5.23,1.16-7.2,3.49-1.96,2.33-2.94,4.98-2.94,7.96,0,2.47.62,4.78,1.85,6.92,1.23,2.14,2.85,3.91,4.85,5.29,2,1.38,4.18,2.47,6.54,3.27,2.36.8,4.71,1.2,7.03,1.2,2.54,0,4.94-.47,7.19-1.42,2.25-.94,4.03-1.98,5.34-3.11,1.31-1.13,2.74-2.16,4.31-3.11,1.56-.94,3-1.42,4.31-1.42Z" style="fill:#fdf9d5;"/><path d="m723.82,87.52c-3.86,0-7.59-.88-11.06-2.62-3.45-1.72-6.48-4.11-9-7.1-2.5-2.95-4.53-6.4-6.04-10.25-2.24-5.63-3.59-8.99-4.02-9.99l-.13-.47c-.03-.11-.08-.28-.15-.51-.07-.23-.13-.41-.19-.52-.06-.07-.25-.34-.49-.7-.11-.07-.32-.11-.65-.11-.18,0-.4.03-.67.29-.15.14-.26.31-.26.64,0,.79.22,3.16,1.29,10,.89,5.73,1.33,9.63,1.33,11.91,0,2.6-.82,4.74-2.43,6.35-1.61,1.61-3.75,2.42-6.35,2.42h-17.01c-2.6,0-4.74-.81-6.35-2.42-1.61-1.61-2.43-3.75-2.43-6.35s.5-7.09,1.54-14.02c1-6.69,1.51-12.28,1.51-16.61,0-4.63-.51-10.68-1.51-17.99-1.38-10.05-1.54-12.15-1.54-12.86,0-2.73.96-4.92,2.86-6.5,1.81-1.51,3.8-2.27,5.92-2.27h17.01c2.11,0,4.1.77,5.92,2.27,1.9,1.58,2.86,3.77,2.86,6.5,0,.79-.14,2.88-1.38,11.88-.4,2.91-.73,5.61-1,8.08.22-.42.44-.83.66-1.24,1.5-2.83,3.48-6.03,5.87-9.52,2.39-3.5,4.85-6.58,7.3-9.14,2.5-2.62,5.42-4.84,8.67-6.62,3.35-1.83,6.76-2.75,10.13-2.75,3.68,0,6.56.77,8.54,2.29,1.93,1.48,3.44,3.58,4.49,6.23.29.72,1.42,3.64,3.38,8.73,1.71,4.49,1.46,8.45-.75,11.8-2.23,3.36-5.37,5.07-9.33,5.07-2.9,0-5.83-.65-8.71-1.94-2.69-1.2-5.33-2.38-7.91-3.55-2.37-1.06-4.69-1.6-6.93-1.6-2.37,0-4.33.96-5.99,2.93-1.73,2.05-2.57,4.32-2.57,6.94,0,2.18.55,4.25,1.64,6.13,1.11,1.93,2.58,3.54,4.38,4.78,1.87,1.29,3.94,2.33,6.15,3.07,4.55,1.54,9.17,1.47,13.11-.18,2.09-.88,3.75-1.83,4.92-2.85,1.37-1.18,2.89-2.28,4.52-3.26,1.81-1.09,3.53-1.65,5.12-1.65,3.51,0,7.68,2.09,7.68,12.05,0,3.97-.79,7.86-2.36,11.57-1.59,3.76-4.12,7-7.52,9.63-3.47,2.68-7.53,4.04-12.09,4.04Zm-27.15-31.03c.5,1.2,1.81,4.44,3.98,9.9,1.39,3.53,3.24,6.69,5.52,9.37,2.25,2.66,4.94,4.78,8,6.31,3.03,1.52,6.28,2.28,9.65,2.28,3.89,0,7.21-1.1,10.15-3.38,2.96-2.29,5.17-5.1,6.54-8.36,1.4-3.31,2.11-6.79,2.11-10.34,0-8.89-3.41-8.89-4.53-8.89-1.01,0-2.18.4-3.49,1.19-1.48.89-2.86,1.89-4.09,2.95-1.43,1.23-3.36,2.36-5.76,3.37-4.65,1.95-10.07,2.04-15.35.26-2.49-.84-4.82-2.01-6.93-3.47-2.18-1.51-3.98-3.46-5.32-5.8-1.37-2.37-2.06-4.97-2.06-7.71,0-3.35,1.12-6.37,3.31-8.98,2.27-2.69,5.1-4.05,8.4-4.05,2.68,0,5.45.63,8.22,1.88,2.58,1.16,5.21,2.34,7.9,3.54,2.47,1.1,4.97,1.66,7.42,1.66,2.88,0,5.07-1.2,6.7-3.65,1.64-2.48,1.78-5.4.44-8.92-1.96-5.07-3.08-7.97-3.37-8.7-.84-2.12-2-3.77-3.47-4.89-1.42-1.08-3.64-1.64-6.62-1.64s-5.74.8-8.62,2.37c-2.97,1.62-5.62,3.65-7.9,6.03-2.33,2.44-4.68,5.38-6.98,8.74-2.32,3.4-4.24,6.5-5.69,9.22-1.47,2.76-2.91,5.61-4.27,8.49l-3.41,7.18.41-7.94c.22-4.34.79-9.88,1.7-16.49,1.11-8.12,1.35-10.71,1.35-11.45,0-1.78-.56-3.11-1.72-4.07-1.25-1.04-2.52-1.54-3.89-1.54h-17.01c-1.37,0-2.65.5-3.89,1.54-1.16.97-1.72,2.3-1.72,4.07,0,.53.2,2.86,1.51,12.43,1.02,7.45,1.54,13.65,1.54,18.42,0,4.49-.52,10.23-1.54,17.08-1,6.68-1.51,11.24-1.51,13.56,0,1.76.49,3.11,1.5,4.12,1.01,1.01,2.36,1.5,4.11,1.5h17.01c1.76,0,3.11-.49,4.11-1.5,1.01-1.01,1.5-2.35,1.5-4.11,0-2.08-.43-5.93-1.29-11.42-1.19-7.64-1.33-9.65-1.33-10.49,0-1.16.44-2.18,1.27-2.96.8-.74,1.77-1.13,2.82-1.13.61,0,1.16.08,1.65.25.66.22,1.22.66,1.63,1.28.19.29.34.5.44.63.23.31.42.72.63,1.41.12.39.19.64.23.84Z" style="fill:#21351e;"/></g><g><path d="m821.82,54.33c2.83,0,4.81,1.13,5.94,3.38,1.12,2.25.96,5.45-.49,9.59-.22.51-.89,2.25-2.02,5.23-1.13,2.98-1.87,4.87-2.24,5.67-.95,2.47-1.93,4.27-2.94,5.4-1.02,1.13-2.58,1.69-4.69,1.69h-57.34c-2.18,0-3.92-.65-5.23-1.96-1.31-1.31-1.96-3.05-1.96-5.23,0-2.4.51-6.99,1.53-13.79,1.02-6.79,1.53-12.41,1.53-16.84,0-4.72-.51-10.79-1.53-18.21-1.02-7.41-1.53-11.63-1.53-12.65,0-2.25.76-4.01,2.29-5.29,1.53-1.27,3.16-1.91,4.9-1.91h54.73c2.03,0,3.58.56,4.63,1.69,1.05,1.13,2.05,2.93,3,5.4.29.65.65,1.58,1.09,2.78s.89,2.42,1.36,3.65c.47,1.24.78,2,.93,2.29,1.53,4,1.33,7.45-.6,10.36-1.93,2.91-4.6,4.36-8.01,4.36-2.4,0-5.23-.67-8.5-2.02-3.27-1.34-6.63-2.67-10.08-3.98-3.45-1.31-6.56-1.96-9.32-1.96-2.18,0-4.16.58-5.94,1.74-1.78,1.16-2.67,2.62-2.67,4.36,0,1.16.42,2.24,1.25,3.22.83.98,1.91,1.71,3.22,2.18,1.31.47,2.69.71,4.14.71h12.32c1.45,0,2.67.42,3.65,1.25.98.84,1.47,1.94,1.47,3.32,0,1.31-.51,2.38-1.53,3.22-1.02.84-2.22,1.25-3.6,1.25s-3.36-.71-5.94-2.13c-2.58-1.42-4.82-2.13-6.7-2.13-1.53,0-2.93.29-4.2.87-1.27.58-2.27,1.38-3,2.4-.73,1.02-1.09,2.14-1.09,3.38,0,2.18,1,4.02,3,5.5,2,1.49,4.78,2.24,8.34,2.24,2.91,0,5.98-.47,9.21-1.42,3.23-.94,6.01-1.98,8.34-3.11,2.33-1.12,4.81-2.16,7.47-3.11,2.65-.94,4.92-1.42,6.81-1.42Z" style="fill:#fdf9d5;"/><path d="m815.39,86.87h-57.34c-2.6,0-4.74-.81-6.35-2.42-1.61-1.61-2.43-3.75-2.43-6.35s.5-7.09,1.54-14.02c1-6.69,1.51-12.28,1.51-16.61,0-4.63-.51-10.68-1.51-17.99-1.38-10.05-1.54-12.15-1.54-12.86,0-2.73.96-4.92,2.86-6.5,1.81-1.51,3.8-2.27,5.92-2.27h54.73c2.48,0,4.43.74,5.79,2.19,1.21,1.29,2.29,3.22,3.32,5.91.27.6.65,1.56,1.1,2.8.43,1.19.88,2.4,1.35,3.63.61,1.61.81,2.04.86,2.14l.07.15c1.71,4.48,1.45,8.45-.76,11.79-3.69,5.57-9.75,6.51-18.43,2.93-3.25-1.34-6.63-2.67-10.04-3.96-3.26-1.23-6.21-1.86-8.76-1.86-1.88,0-3.55.49-5.08,1.49-1.75,1.14-1.95,2.28-1.95,3.04s.29,1.5.88,2.19c.66.78,1.49,1.34,2.55,1.72,1.13.41,2.34.61,3.61.61h12.32c1.83,0,3.4.55,4.67,1.63,1.33,1.13,2.03,2.7,2.03,4.53s-.73,3.31-2.1,4.44c-1.3,1.07-2.85,1.61-4.6,1.61s-3.86-.76-6.7-2.32c-2.33-1.28-4.33-1.93-5.94-1.93-1.29,0-2.48.25-3.54.73-1.03.47-1.8,1.09-2.37,1.88-.54.75-.8,1.56-.8,2.46,0,1.67.77,3.05,2.36,4.24,1.71,1.28,4.2,1.92,7.39,1.92,2.74,0,5.69-.46,8.77-1.35,3.14-.92,5.86-1.93,8.09-3.01,2.38-1.15,4.95-2.22,7.63-3.17,2.85-1.02,5.25-1.51,7.34-1.51,3.42,0,5.96,1.47,7.35,4.25,1.34,2.68,1.2,6.22-.41,10.82-.19.44-.65,1.61-2.03,5.27-1.15,3.03-1.89,4.92-2.27,5.76-.99,2.59-2.05,4.52-3.21,5.8-1.32,1.47-3.3,2.21-5.86,2.21Zm-57.34-75.87c-1.37,0-2.65.5-3.89,1.54-1.16.97-1.72,2.3-1.72,4.07,0,.53.2,2.86,1.51,12.43,1.02,7.45,1.54,13.65,1.54,18.42,0,4.49-.52,10.23-1.54,17.08-1,6.68-1.51,11.24-1.51,13.56,0,1.76.49,3.11,1.5,4.12,1.01,1.01,2.36,1.5,4.11,1.5h57.34c1.66,0,2.8-.38,3.51-1.17.88-.98,1.77-2.62,2.64-4.9.39-.86,1.12-2.73,2.23-5.66,1.14-3.02,1.81-4.76,2.04-5.3,1.26-3.6,1.45-6.42.53-8.26-.86-1.71-2.3-2.5-4.53-2.5-1.7,0-3.81.45-6.28,1.33-2.57.91-5.03,1.94-7.31,3.04-2.39,1.16-5.28,2.24-8.58,3.2-3.36.98-6.61,1.48-9.66,1.48-3.89,0-7.02-.86-9.28-2.55-2.41-1.79-3.63-4.07-3.63-6.77,0-1.57.47-3.01,1.39-4.3.88-1.24,2.1-2.22,3.62-2.92,3.32-1.52,7.2-1.51,12.32,1.31,2.91,1.6,4.42,1.93,5.18,1.93,1.01,0,1.86-.29,2.6-.89.65-.53.95-1.16.95-1.99,0-.91-.29-1.59-.92-2.12-.69-.59-1.55-.88-2.63-.88h-12.32c-1.64,0-3.21-.27-4.68-.8-1.56-.56-2.87-1.45-3.88-2.64-1.08-1.27-1.63-2.7-1.63-4.24s.59-3.86,3.39-5.68c4.44-2.9,10.01-2.46,16.68.06,3.44,1.31,6.85,2.65,10.13,4,7.08,2.91,11.73,2.57,14.6-1.75,1.63-2.46,1.79-5.36.47-8.85-.13-.27-.37-.82-.95-2.36-.48-1.24-.93-2.47-1.37-3.68-.42-1.16-.77-2.05-1.05-2.68-.9-2.34-1.8-3.98-2.71-4.96-.75-.8-1.89-1.19-3.48-1.19h-54.73Z" style="fill:#21351e;"/></g><g><path d="m913.94,53.89c1.31,0,2.4.67,3.27,2.02.87,1.35,1.31,3.4,1.31,6.16,0,3.71-.85,7.38-2.56,11.01-1.71,3.63-4.25,6.69-7.63,9.16-3.38,2.47-7.1,3.71-11.17,3.71-3.05,0-5.96-.6-8.72-1.8-2.76-1.2-5.21-2.83-7.36-4.9-2.14-2.07-4-4.36-5.56-6.87-1.56-2.51-2.93-5.21-4.09-8.12-.8-2.11-1.64-4.32-2.51-6.65-.29-.65-.53-1.16-.71-1.53-.18-.36-.47-.69-.87-.98s-.89-.44-1.47-.44-1.14.22-1.69.65c-.54.44-.82,1.05-.82,1.85,0,.73.51,4,1.53,9.81,1.02,5.82,1.53,9.52,1.53,11.12,0,2.18-.65,3.93-1.96,5.23-1.31,1.31-3.05,1.96-5.23,1.96h-17.01c-2.18,0-3.92-.65-5.23-1.96-1.31-1.31-1.96-3.05-1.96-5.23,0-2.4.51-6.99,1.53-13.79,1.02-6.79,1.53-12.41,1.53-16.84,0-4.72-.51-10.79-1.53-18.21-1.02-7.41-1.53-11.63-1.53-12.65,0-2.25.76-4.01,2.29-5.29,1.53-1.27,3.16-1.91,4.9-1.91h48.84c4.43,0,8.41,1.18,11.94,3.54,3.52,2.36,6.16,5.23,7.9,8.61,1.74,3.38,2.62,6.81,2.62,10.3s-.85,7.03-2.56,10.41c-1.71,3.38-4.32,6.23-7.85,8.56-3.53,2.33-7.54,3.49-12.05,3.49h-18.31c1.53,2.11,4.09,3.74,7.68,4.91,3.6,1.16,7.43,1.74,11.5,1.74,2.76,0,5.36-.36,7.79-1.09s4.36-1.54,5.78-2.45c1.42-.91,2.89-1.73,4.42-2.45,1.53-.73,2.87-1.09,4.03-1.09Zm-50.58-19.19v14.83h19.51c2.03,0,3.78-.73,5.23-2.18,1.45-1.45,2.18-3.2,2.18-5.23s-.73-3.78-2.18-5.23c-1.45-1.45-3.2-2.18-5.23-2.18h-19.51Z" style="fill:#fdf9d5;"/><path d="m897.15,87.52c-3.26,0-6.41-.65-9.35-1.93-2.92-1.27-5.56-3.02-7.83-5.22-2.23-2.15-4.18-4.56-5.8-7.17-1.6-2.57-3.02-5.39-4.22-8.37-.81-2.14-1.65-4.35-2.52-6.68-.24-.54-.47-1.03-.64-1.38-.06-.13-.2-.27-.39-.4-.04-.03-.19-.14-.54-.14-.08,0-.32,0-.71.31-.08.07-.22.18-.22.62,0,.29.15,1.81,1.5,9.54,1.04,5.96,1.55,9.69,1.55,11.39,0,2.6-.82,4.74-2.43,6.35-1.61,1.61-3.75,2.42-6.35,2.42h-17.01c-2.6,0-4.74-.81-6.35-2.42-1.61-1.61-2.43-3.75-2.43-6.35s.5-7.09,1.54-14.02c1-6.69,1.51-12.28,1.51-16.61,0-4.63-.51-10.68-1.51-17.99-1.38-10.05-1.54-12.15-1.54-12.86,0-2.73.96-4.92,2.86-6.5,1.81-1.51,3.8-2.27,5.92-2.27h48.84c4.73,0,9.04,1.28,12.82,3.81,3.73,2.5,6.57,5.6,8.43,9.2,1.85,3.59,2.79,7.3,2.79,11.03s-.92,7.53-2.73,11.12c-1.83,3.61-4.65,6.7-8.39,9.16-3.77,2.49-8.12,3.75-12.92,3.75h-14.23c1.13.7,2.5,1.31,4.09,1.82,3.42,1.11,7.13,1.67,11.01,1.67,2.6,0,5.07-.34,7.34-1.02,2.28-.68,4.09-1.45,5.38-2.27,1.47-.94,3.02-1.8,4.59-2.55,1.76-.84,3.3-1.24,4.71-1.24,1.29,0,3.13.48,4.6,2.74,1.05,1.62,1.56,3.92,1.56,7.02,0,3.92-.91,7.85-2.71,11.68-1.81,3.86-4.55,7.14-8.13,9.76-3.64,2.66-7.71,4.01-12.11,4.01Zm-31.29-34.45c.92,0,1.72.25,2.4.74.6.44,1.06.96,1.36,1.55.19.38.44.91.74,1.59.91,2.41,1.74,4.63,2.54,6.73,1.11,2.78,2.45,5.43,3.95,7.85,1.49,2.39,3.28,4.6,5.32,6.57,2,1.93,4.32,3.47,6.89,4.59,2.55,1.11,5.27,1.67,8.09,1.67,3.71,0,7.16-1.14,10.24-3.4,3.15-2.3,5.55-5.18,7.13-8.55,1.6-3.41,2.41-6.89,2.41-10.34,0-2.44-.35-4.22-1.05-5.3-.76-1.16-1.47-1.3-1.95-1.3-.92,0-2.05.32-3.35.94-1.45.69-2.88,1.48-4.24,2.36-1.53.98-3.61,1.87-6.18,2.64-2.57.77-5.34,1.16-8.25,1.16-4.22,0-8.25-.61-11.99-1.82-3.91-1.26-6.76-3.11-8.48-5.48l-1.81-2.51h21.41c4.17,0,7.93-1.09,11.18-3.23,3.28-2.16,5.73-4.84,7.31-7.95,1.59-3.14,2.39-6.41,2.39-9.7s-.82-6.44-2.44-9.58c-1.61-3.12-4.1-5.82-7.38-8.02-3.24-2.17-6.97-3.28-11.06-3.28h-48.84c-1.37,0-2.65.5-3.89,1.54-1.16.97-1.72,2.3-1.72,4.07,0,.53.2,2.86,1.51,12.43,1.02,7.45,1.54,13.65,1.54,18.42,0,4.49-.52,10.23-1.54,17.08-1,6.68-1.51,11.24-1.51,13.56,0,1.76.49,3.11,1.5,4.12,1.01,1.01,2.36,1.5,4.11,1.5h17.01c1.76,0,3.11-.49,4.11-1.5,1.01-1.01,1.5-2.35,1.5-4.11,0-1.03-.26-3.75-1.5-10.85-1.37-7.84-1.55-9.5-1.55-10.08,0-1.62.77-2.57,1.41-3.09.83-.66,1.73-1,2.68-1Zm17.01-1.96h-21.09v-17.99h21.09c2.46,0,4.59.89,6.35,2.64,1.75,1.76,2.64,3.89,2.64,6.35s-.89,4.59-2.64,6.35c-1.75,1.75-3.89,2.64-6.35,2.64Zm-17.93-3.16h17.93c1.61,0,2.96-.56,4.11-1.72,1.16-1.16,1.72-2.5,1.72-4.11s-.56-2.96-1.72-4.12c-1.16-1.16-2.5-1.72-4.11-1.72h-17.93v11.67Z" style="fill:#21351e;"/></g></g></g></svg>
